<svg display="none" xmlns="http://www.w3.org/2000/svg">
    <symbol id="item-1" viewBox="0 0 14 7">
        <path d="M10.9877 1.54068e-05C10.2757 0.000906761 9.58719 0.271543 9.04397 0.763671L7.36168 2.28365L8.33698 3.16722L9.65759 1.96924H9.6577C9.99665 1.66584 10.4243 1.49895 10.8663 1.49749H10.9666C11.6335 1.49749 12.2498 1.87811 12.5832 2.49581C12.9166 3.11351 12.9166 3.87474 12.5832 4.49244C12.2498 5.11014 11.6335 5.49076 10.9666 5.49076H10.8639C10.4215 5.48953 9.99362 5.32162 9.6553 5.01656L8.1853 3.68132L6.84592 2.4733L4.95363 0.761246C4.36603 0.229657 3.6103 -0.0409728 2.84188 0.00503537C2.07356 0.0509408 1.35074 0.410039 0.822204 1.00837C0.293673 1.60671 -0.000593264 2.39889 2.00677e-05 3.22204V3.76621C-0.00279246 4.59082 0.290126 5.38525 0.818444 5.98578C1.34676 6.58645 2.0702 6.94744 2.83991 6.99468C3.60969 7.04192 4.36699 6.77162 4.95603 6.23947L6.63832 4.71949L5.66302 3.83592L4.34241 5.03145H4.3423C4.00209 5.33117 3.57439 5.49361 3.13367 5.49073H3.03336C2.36648 5.49073 1.75024 5.11011 1.4168 4.49241C1.08336 3.87471 1.08336 3.11348 1.4168 2.49578C1.75024 1.87808 2.36648 1.49746 3.03336 1.49746H3.13606C3.57846 1.49869 4.00638 1.6666 4.3447 1.97166L5.8147 3.30447L7.15408 4.51495L9.04397 6.2395C9.63303 6.77163 10.3903 7.04194 11.1601 6.99471C11.9298 6.94747 12.6532 6.58648 13.1816 5.98581C13.7099 5.38525 14.0028 4.59085 14 3.76624V3.22207C13.9994 2.36782 13.6817 1.54866 13.117 0.944537C12.5522 0.340413 11.7864 0.000700169 10.9877 4.4132e-05L10.9877 1.54068e-05Z"/>
    </symbol>

    <symbol id="item-2" viewBox="0 0 16 16">
            <path d="M2.22727 1.22727V13.5H13.2727V1.22727H2.22727ZM2.22727 0H13.2727C13.9505 0 14.5 0.549469 14.5 1.22727V13.5C14.5 14.1778 13.9505 14.7273 13.2727 14.7273H2.22727C1.54947 14.7273 1 14.1778 1 13.5V1.22727C1 0.549469 1.54947 0 2.22727 0Z" fill="#2A3548"/>
            <path d="M2.22727 1.22727V13.5H13.2727V1.22727H2.22727ZM2.22727 0H13.2727C13.9505 0 14.5 0.549469 14.5 1.22727V13.5C14.5 14.1778 13.9505 14.7273 13.2727 14.7273H2.22727C1.54947 14.7273 1 14.1778 1 13.5V1.22727C1 0.549469 1.54947 0 2.22727 0Z" fill="black" fill-opacity="0.2"/>
            <path d="M10.8046 3.04468C10.4657 3.04468 10.1909 2.76994 10.1909 2.43104C10.1909 2.09214 10.4657 1.8174 10.8046 1.8174L12.0639 1.8174C12.4028 1.8174 12.6775 2.09214 12.6775 2.43104C12.6775 2.76994 12.4028 3.04468 12.0639 3.04468H10.8046Z" fill="#2A3548"/>
            <path d="M10.8046 3.04468C10.4657 3.04468 10.1909 2.76994 10.1909 2.43104C10.1909 2.09214 10.4657 1.8174 10.8046 1.8174L12.0639 1.8174C12.4028 1.8174 12.6775 2.09214 12.6775 2.43104C12.6775 2.76994 12.4028 3.04468 12.0639 3.04468H10.8046Z" fill="black" fill-opacity="0.2"/>
            <path d="M8.98319 3.06809C8.64428 3.06809 8.36955 2.79336 8.36955 2.45446C8.36955 2.11555 8.64428 1.84082 8.98319 1.84082C9.32209 1.84082 9.59682 2.11555 9.59682 2.45446C9.59682 2.79336 9.32209 3.06809 8.98319 3.06809ZM7.14943 3.06809C6.81052 3.06809 6.53579 2.79336 6.53579 2.45446C6.53579 2.11555 6.81052 1.84082 7.14943 1.84082C7.48833 1.84082 7.76306 2.11555 7.76306 2.45446C7.76306 2.79336 7.48833 3.06809 7.14943 3.06809ZM2.84402 14.1083C2.84402 13.7694 3.11875 13.4946 3.45766 13.4946C3.79656 13.4946 4.07129 13.7694 4.07129 14.1083L4.06809 15.3388C4.06809 15.6778 3.79336 15.9525 3.45446 15.9525C3.11555 15.9525 2.84082 15.6778 2.84082 15.3388L2.84402 14.1083ZM11.4343 14.1128C11.4343 13.7739 11.709 13.4992 12.0479 13.4992C12.3868 13.4992 12.6615 13.7739 12.6615 14.1128V15.3388C12.6615 15.6778 12.3868 15.9525 12.0479 15.9525C11.709 15.9525 11.4343 15.6778 11.4343 15.3388V14.1128ZM7.74991 12.8863C5.7165 12.8863 4.06809 11.2379 4.06809 9.20446C4.06809 7.17104 5.7165 5.52264 7.74991 5.52264C9.78332 5.52264 11.4317 7.17104 11.4317 9.20446C11.4317 11.2379 9.78332 12.8863 7.74991 12.8863ZM7.74991 11.659C9.10552 11.659 10.2045 10.5601 10.2045 9.20446C10.2045 7.84885 9.10552 6.74991 7.74991 6.74991C6.3943 6.74991 5.29537 7.84885 5.29537 9.20446C5.29537 10.5601 6.3943 11.659 7.74991 11.659Z" fill="#2A3548"/>
            <path d="M8.98319 3.06809C8.64428 3.06809 8.36955 2.79336 8.36955 2.45446C8.36955 2.11555 8.64428 1.84082 8.98319 1.84082C9.32209 1.84082 9.59682 2.11555 9.59682 2.45446C9.59682 2.79336 9.32209 3.06809 8.98319 3.06809ZM7.14943 3.06809C6.81052 3.06809 6.53579 2.79336 6.53579 2.45446C6.53579 2.11555 6.81052 1.84082 7.14943 1.84082C7.48833 1.84082 7.76306 2.11555 7.76306 2.45446C7.76306 2.79336 7.48833 3.06809 7.14943 3.06809ZM2.84402 14.1083C2.84402 13.7694 3.11875 13.4946 3.45766 13.4946C3.79656 13.4946 4.07129 13.7694 4.07129 14.1083L4.06809 15.3388C4.06809 15.6778 3.79336 15.9525 3.45446 15.9525C3.11555 15.9525 2.84082 15.6778 2.84082 15.3388L2.84402 14.1083ZM11.4343 14.1128C11.4343 13.7739 11.709 13.4992 12.0479 13.4992C12.3868 13.4992 12.6615 13.7739 12.6615 14.1128V15.3388C12.6615 15.6778 12.3868 15.9525 12.0479 15.9525C11.709 15.9525 11.4343 15.6778 11.4343 15.3388V14.1128ZM7.74991 12.8863C5.7165 12.8863 4.06809 11.2379 4.06809 9.20446C4.06809 7.17104 5.7165 5.52264 7.74991 5.52264C9.78332 5.52264 11.4317 7.17104 11.4317 9.20446C11.4317 11.2379 9.78332 12.8863 7.74991 12.8863ZM7.74991 11.659C9.10552 11.659 10.2045 10.5601 10.2045 9.20446C10.2045 7.84885 9.10552 6.74991 7.74991 6.74991C6.3943 6.74991 5.29537 7.84885 5.29537 9.20446C5.29537 10.5601 6.3943 11.659 7.74991 11.659Z" fill="black" fill-opacity="0.2"/>
            <path d="M7.75009 7.36328C8.08899 7.36328 8.36373 7.63802 8.36373 7.97692C8.36373 8.31582 8.08899 8.59055 7.75009 8.59055C7.41119 8.59055 7.13645 8.86529 7.13645 9.20419C7.13645 9.54309 6.86172 9.81783 6.52282 9.81783C6.18391 9.81783 5.90918 9.54309 5.90918 9.20419C5.90918 8.18748 6.73338 7.36328 7.75009 7.36328Z" fill="#2A3548"/>
            <path d="M7.75009 7.36328C8.08899 7.36328 8.36373 7.63802 8.36373 7.97692C8.36373 8.31582 8.08899 8.59055 7.75009 8.59055C7.41119 8.59055 7.13645 8.86529 7.13645 9.20419C7.13645 9.54309 6.86172 9.81783 6.52282 9.81783C6.18391 9.81783 5.90918 9.54309 5.90918 9.20419C5.90918 8.18748 6.73338 7.36328 7.75009 7.36328Z" fill="black" fill-opacity="0.2"/>
            <path d="M1.61377 4.92136V3.69409H13.8865V4.92136H1.61377Z" fill="#2A3548"/>
            <path d="M1.61377 4.92136V3.69409H13.8865V4.92136H1.61377Z" fill="black" fill-opacity="0.2"/>
    </symbol>

    <symbol id="item-3" viewBox="0 0 16 11">
            <path d="M13.3333 9.70588C14.07 9.70588 14.66 9.12677 14.66 8.41177L14.6667 1.29412C14.6667 0.579118 14.07 0 13.3333 0H2.66667C1.93 0 1.33333 0.579118 1.33333 1.29412V8.41177C1.33333 9.12677 1.93 9.70588 2.66667 9.70588H0C0 10.4209 0.596667 11 1.33333 11H14.6667C15.4033 11 16 10.4209 16 9.70588H13.3333ZM2.66667 1.29412H13.3333V8.41177H2.66667V1.29412ZM8 10.3529C7.63333 10.3529 7.33333 10.0618 7.33333 9.70588C7.33333 9.35 7.63333 9.05882 8 9.05882C8.36667 9.05882 8.66667 9.35 8.66667 9.70588C8.66667 10.0618 8.36667 10.3529 8 10.3529Z" fill="#2A3548"/>
            <path d="M13.3333 9.70588C14.07 9.70588 14.66 9.12677 14.66 8.41177L14.6667 1.29412C14.6667 0.579118 14.07 0 13.3333 0H2.66667C1.93 0 1.33333 0.579118 1.33333 1.29412V8.41177C1.33333 9.12677 1.93 9.70588 2.66667 9.70588H0C0 10.4209 0.596667 11 1.33333 11H14.6667C15.4033 11 16 10.4209 16 9.70588H13.3333ZM2.66667 1.29412H13.3333V8.41177H2.66667V1.29412ZM8 10.3529C7.63333 10.3529 7.33333 10.0618 7.33333 9.70588C7.33333 9.35 7.63333 9.05882 8 9.05882C8.36667 9.05882 8.66667 9.35 8.66667 9.70588C8.66667 10.0618 8.36667 10.3529 8 10.3529Z" fill="black" fill-opacity="0.2"/>
    </symbol>

    <symbol id="item-4" viewBox="0 0 9 15">
            <path d="M7.23214 0H1.76786C0.793928 0 0 0.723633 0 1.61133V13.3887C0 14.2764 0.793928 15 1.76786 15H7.23214C8.20607 15 9 14.2764 9 13.3887V1.61133C9 0.723633 8.20929 0 7.23214 0ZM3.83464 0.662109H5.19107C5.34857 0.662109 5.47393 0.793945 5.47393 0.955078C5.47393 1.11621 5.34857 1.24805 5.19107 1.24805H3.83464C3.67714 1.24805 3.55179 1.11621 3.55179 0.955078C3.55179 0.793945 3.67714 0.662109 3.83464 0.662109ZM2.55214 0.618164C2.75464 0.618164 2.92179 0.767578 2.92179 0.955078C2.92179 1.14258 2.75464 1.28906 2.55214 1.28906C2.34964 1.28906 2.1825 1.13965 2.1825 0.952148C2.1825 0.764648 2.34643 0.618164 2.55214 0.618164ZM4.51286 13.9775C4.185 13.9775 3.92143 13.7373 3.92143 13.4385C3.92143 13.1396 4.185 12.8994 4.51286 12.8994C4.84071 12.8994 5.10429 13.1396 5.10429 13.4385C5.10429 13.7373 4.84071 13.9775 4.51286 13.9775ZM7.97143 12.583H1.03179V1.95117H7.97143V12.583Z" fill="#2A3548"/>
            <path d="M7.23214 0H1.76786C0.793928 0 0 0.723633 0 1.61133V13.3887C0 14.2764 0.793928 15 1.76786 15H7.23214C8.20607 15 9 14.2764 9 13.3887V1.61133C9 0.723633 8.20929 0 7.23214 0ZM3.83464 0.662109H5.19107C5.34857 0.662109 5.47393 0.793945 5.47393 0.955078C5.47393 1.11621 5.34857 1.24805 5.19107 1.24805H3.83464C3.67714 1.24805 3.55179 1.11621 3.55179 0.955078C3.55179 0.793945 3.67714 0.662109 3.83464 0.662109ZM2.55214 0.618164C2.75464 0.618164 2.92179 0.767578 2.92179 0.955078C2.92179 1.14258 2.75464 1.28906 2.55214 1.28906C2.34964 1.28906 2.1825 1.13965 2.1825 0.952148C2.1825 0.764648 2.34643 0.618164 2.55214 0.618164ZM4.51286 13.9775C4.185 13.9775 3.92143 13.7373 3.92143 13.4385C3.92143 13.1396 4.185 12.8994 4.51286 12.8994C4.84071 12.8994 5.10429 13.1396 5.10429 13.4385C5.10429 13.7373 4.84071 13.9775 4.51286 13.9775ZM7.97143 12.583H1.03179V1.95117H7.97143V12.583Z" fill="black" fill-opacity="0.2"/>
    </symbol>

    <symbol id="item-5" viewBox="0 0 16 16">
            <g clip-path="url(#clip0_161_1640)">
                <path d="M10 12.6667H6.00003C5.60003 12.6667 5.33337 12.4 5.33337 12V11.6667C5.33337 10.7333 4.93337 9.8 4.20003 9.06667C3.13337 8 2.60003 6.6 2.6667 5.13333C2.80003 2.33333 5.13337 0.0666667 7.93337 0H8.00003C10.9334 0 13.3334 2.4 13.3334 5.33333C13.3334 6.73333 12.8 8.13333 11.7334 9.13333C11 9.8 10.6667 10.7333 10.6667 11.6667V12C10.6667 12.4 10.4 12.6667 10 12.6667ZM6.6667 11.3333H9.33337C9.40003 10.1333 9.93337 9.06667 10.8 8.13333C11.6 7.4 12 6.4 12 5.33333C12 3.13333 10.2 1.33333 8.00003 1.33333H7.93337C5.8667 1.4 4.0667 3.06667 4.00003 5.2C3.93337 6.26667 4.40003 7.33333 5.13337 8.13333C6.0667 9.06667 6.60003 10.2 6.6667 11.3333Z" fill="#2A3548"/>
                <path d="M10 12.6667H6.00003C5.60003 12.6667 5.33337 12.4 5.33337 12V11.6667C5.33337 10.7333 4.93337 9.8 4.20003 9.06667C3.13337 8 2.60003 6.6 2.6667 5.13333C2.80003 2.33333 5.13337 0.0666667 7.93337 0H8.00003C10.9334 0 13.3334 2.4 13.3334 5.33333C13.3334 6.73333 12.8 8.13333 11.7334 9.13333C11 9.8 10.6667 10.7333 10.6667 11.6667V12C10.6667 12.4 10.4 12.6667 10 12.6667ZM6.6667 11.3333H9.33337C9.40003 10.1333 9.93337 9.06667 10.8 8.13333C11.6 7.4 12 6.4 12 5.33333C12 3.13333 10.2 1.33333 8.00003 1.33333H7.93337C5.8667 1.4 4.0667 3.06667 4.00003 5.2C3.93337 6.26667 4.40003 7.33333 5.13337 8.13333C6.0667 9.06667 6.60003 10.2 6.6667 11.3333Z" fill="black" fill-opacity="0.2"/>
                <path d="M8.00016 16.0003C6.5335 16.0003 5.3335 14.8003 5.3335 13.3337V12.0003C5.3335 11.6003 5.60016 11.3337 6.00016 11.3337H10.0002C10.4002 11.3337 10.6668 11.6003 10.6668 12.0003V13.3337C10.6668 14.8003 9.46683 16.0003 8.00016 16.0003ZM6.66683 12.667V13.3337C6.66683 14.067 7.26683 14.667 8.00016 14.667C8.7335 14.667 9.3335 14.067 9.3335 13.3337V12.667H6.66683ZM6.00016 6.00033C5.60016 6.00033 5.3335 5.73366 5.3335 5.33366C5.3335 3.86699 6.5335 2.66699 8.00016 2.66699C8.40016 2.66699 8.66683 2.93366 8.66683 3.33366C8.66683 3.73366 8.40016 4.00033 8.00016 4.00033C7.26683 4.00033 6.66683 4.60033 6.66683 5.33366C6.66683 5.73366 6.40016 6.00033 6.00016 6.00033Z" fill="#2A3548"/>
                <path d="M8.00016 16.0003C6.5335 16.0003 5.3335 14.8003 5.3335 13.3337V12.0003C5.3335 11.6003 5.60016 11.3337 6.00016 11.3337H10.0002C10.4002 11.3337 10.6668 11.6003 10.6668 12.0003V13.3337C10.6668 14.8003 9.46683 16.0003 8.00016 16.0003ZM6.66683 12.667V13.3337C6.66683 14.067 7.26683 14.667 8.00016 14.667C8.7335 14.667 9.3335 14.067 9.3335 13.3337V12.667H6.66683ZM6.00016 6.00033C5.60016 6.00033 5.3335 5.73366 5.3335 5.33366C5.3335 3.86699 6.5335 2.66699 8.00016 2.66699C8.40016 2.66699 8.66683 2.93366 8.66683 3.33366C8.66683 3.73366 8.40016 4.00033 8.00016 4.00033C7.26683 4.00033 6.66683 4.60033 6.66683 5.33366C6.66683 5.73366 6.40016 6.00033 6.00016 6.00033Z" fill="black" fill-opacity="0.2"/>
            </g>
            <defs>
                <clipPath id="clip0_161_1640">
                    <rect width="16" height="16" fill="white"/>
                </clipPath>
            </defs>
    </symbol>

    <symbol id="item-6" viewBox="0 0 16 16">
            <path d="M14.913 15.45C15.0058 15.3167 15.0243 15.1501 14.9687 15L11.5719 7.16664L13.2796 2.36662C13.3724 2.09992 13.2054 1.83322 12.9269 1.73325L10.551 1.03337C10.4953 1.01663 10.4396 1 10.384 1H6.22618C6.15199 1 6.07767 1.01662 6.022 1.03337L4.01735 1.74998C3.75749 1.84996 3.60899 2.10004 3.68331 2.33337L5.03827 7.16673L2.03133 15.0334C1.97565 15.1668 1.99417 15.3335 2.087 15.4667C2.17984 15.6001 2.32834 15.6834 2.51389 15.7001L6.41181 16H6.46749H10.551H10.6067L14.5046 15.7001C14.6531 15.6668 14.8202 15.5834 14.913 15.45ZM9.60439 1.99998C9.40021 2.41665 8.93618 2.69998 8.39796 2.69998C7.85961 2.69998 7.39557 2.41666 7.19139 1.99998H9.60439ZM6.04058 2.09996C6.31895 3.01666 7.26567 3.70003 8.39793 3.70003C9.51169 3.70003 10.4398 3.03342 10.7366 2.13332L12.0546 2.53335L10.5696 6.68337L6.05917 6.68326L4.88976 2.53324L6.04058 2.09996ZM10.5139 15H6.46749L3.31206 14.7501L6.02211 7.68336H10.6068L13.6509 14.7501L10.5139 15Z" fill="#2A3548"/>
            <path d="M14.913 15.45C15.0058 15.3167 15.0243 15.1501 14.9687 15L11.5719 7.16664L13.2796 2.36662C13.3724 2.09992 13.2054 1.83322 12.9269 1.73325L10.551 1.03337C10.4953 1.01663 10.4396 1 10.384 1H6.22618C6.15199 1 6.07767 1.01662 6.022 1.03337L4.01735 1.74998C3.75749 1.84996 3.60899 2.10004 3.68331 2.33337L5.03827 7.16673L2.03133 15.0334C1.97565 15.1668 1.99417 15.3335 2.087 15.4667C2.17984 15.6001 2.32834 15.6834 2.51389 15.7001L6.41181 16H6.46749H10.551H10.6067L14.5046 15.7001C14.6531 15.6668 14.8202 15.5834 14.913 15.45ZM9.60439 1.99998C9.40021 2.41665 8.93618 2.69998 8.39796 2.69998C7.85961 2.69998 7.39557 2.41666 7.19139 1.99998H9.60439ZM6.04058 2.09996C6.31895 3.01666 7.26567 3.70003 8.39793 3.70003C9.51169 3.70003 10.4398 3.03342 10.7366 2.13332L12.0546 2.53335L10.5696 6.68337L6.05917 6.68326L4.88976 2.53324L6.04058 2.09996ZM10.5139 15H6.46749L3.31206 14.7501L6.02211 7.68336H10.6068L13.6509 14.7501L10.5139 15Z" fill="black" fill-opacity="0.2"/>
    </symbol>

    <symbol id="item-7" viewBox="0 0 8 16">
        <path d="M6.38416 3.73114L7.20777 0.761759C7.25811 0.580527 7.21987 0.386497 7.10457 0.237059C6.98914 0.0876274 6.80982 0 6.61975 0H1.37978C1.18958 0 1.01026 0.0876274 0.894971 0.237059C0.779662 0.38649 0.74143 0.580524 0.791764 0.761759L1.61538 3.73114L0.0111117 11.932C-0.0273649 12.1284 0.0354314 12.3308 0.178566 12.4722L3.56873 15.8233C3.68307 15.9365 3.83819 16 3.99996 16C4.16174 16 4.31683 15.9365 4.43131 15.8234L7.82148 12.4723C7.96462 12.3308 8.02729 12.1285 7.98893 11.9321L6.38416 3.73114ZM5.82033 1.20502L5.28385 3.13914H2.71563L2.17915 1.20502H5.82033ZM3.99974 14.5452L1.26986 11.8465L2.73752 4.34404H5.26195L6.72962 11.8465L3.99974 14.5452Z" fill="#2A3548"/>
        <path d="M6.38416 3.73114L7.20777 0.761759C7.25811 0.580527 7.21987 0.386497 7.10457 0.237059C6.98914 0.0876274 6.80982 0 6.61975 0H1.37978C1.18958 0 1.01026 0.0876274 0.894971 0.237059C0.779662 0.38649 0.74143 0.580524 0.791764 0.761759L1.61538 3.73114L0.0111117 11.932C-0.0273649 12.1284 0.0354314 12.3308 0.178566 12.4722L3.56873 15.8233C3.68307 15.9365 3.83819 16 3.99996 16C4.16174 16 4.31683 15.9365 4.43131 15.8234L7.82148 12.4723C7.96462 12.3308 8.02729 12.1285 7.98893 11.9321L6.38416 3.73114ZM5.82033 1.20502L5.28385 3.13914H2.71563L2.17915 1.20502H5.82033ZM3.99974 14.5452L1.26986 11.8465L2.73752 4.34404H5.26195L6.72962 11.8465L3.99974 14.5452Z" fill="black" fill-opacity="0.2"/>
    </symbol>

    <symbol id="item-8" viewBox="0 0 16 16">
            <path d="M10.81 8.40798C10.6907 8.31804 10.538 8.29529 10.4002 8.34718L10.4 8.3473V5.59988C10.4 5.33473 10.1986 5.11988 9.95004 5.11988H9.50005V0.479993C9.50005 0.21485 9.29863 0 9.05007 0C7.47862 0 6.19999 1.36376 6.19999 3.04011V5.12012H5.75C5.50143 5.12012 5.30001 5.33498 5.30001 5.60011V10.2675C5.12023 10.3353 5 10.5166 5 10.7201V15.52C5 15.7851 5.20143 16 5.44999 16H10.55C10.7986 16 11 15.7851 11 15.52V8.79993C11 8.64416 10.9292 8.498 10.8099 8.40804L10.81 8.40798ZM7.10002 3.03988C7.10002 2.05804 7.74093 1.23302 8.60002 1.01576V5.11995H7.10002V3.03988ZM6.20004 6.07999H9.49994V8.68628L6.20004 9.92868V6.07999ZM10.1001 15.04H5.90025V11.0596L10.1001 9.47841L10.1003 9.4783L10.1001 15.04Z" fill="#2A3548"/>
            <path d="M10.81 8.40798C10.6907 8.31804 10.538 8.29529 10.4002 8.34718L10.4 8.3473V5.59988C10.4 5.33473 10.1986 5.11988 9.95004 5.11988H9.50005V0.479993C9.50005 0.21485 9.29863 0 9.05007 0C7.47862 0 6.19999 1.36376 6.19999 3.04011V5.12012H5.75C5.50143 5.12012 5.30001 5.33498 5.30001 5.60011V10.2675C5.12023 10.3353 5 10.5166 5 10.7201V15.52C5 15.7851 5.20143 16 5.44999 16H10.55C10.7986 16 11 15.7851 11 15.52V8.79993C11 8.64416 10.9292 8.498 10.8099 8.40804L10.81 8.40798ZM7.10002 3.03988C7.10002 2.05804 7.74093 1.23302 8.60002 1.01576V5.11995H7.10002V3.03988ZM6.20004 6.07999H9.49994V8.68628L6.20004 9.92868V6.07999ZM10.1001 15.04H5.90025V11.0596L10.1001 9.47841L10.1003 9.4783L10.1001 15.04Z" fill="black" fill-opacity="0.2"/>
    </symbol>

    <symbol id="item-9" viewBox="0 0 16 16">
            <path d="M6.93477 7.375C6.04738 7.63185 5.28253 8.2004 4.78083 8.97612C4.27913 9.75183 4.0743 10.6826 4.20401 11.5973C4.33372 12.5119 4.78925 13.349 5.48684 13.9547C6.18443 14.5603 7.07721 14.8938 8.00102 14.8938C8.92484 14.8938 9.81762 14.5603 10.5152 13.9547C11.2128 13.349 11.6683 12.5119 11.798 11.5973C11.9277 10.6826 11.7229 9.75183 11.2212 8.97612C10.7195 8.2004 9.95467 7.63185 9.06728 7.375M7.15227 8.885C6.64515 9.08287 6.22309 9.45171 5.95906 9.92775C5.69504 10.4038 5.60563 10.9571 5.7063 11.4921C5.80697 12.0271 6.0914 12.5101 6.5104 12.8576C6.92941 13.2051 7.45666 13.3953 8.00102 13.3953C8.54539 13.3953 9.07264 13.2051 9.49165 12.8576C9.91065 12.5101 10.1951 12.0271 10.2957 11.4921C10.3964 10.9571 10.307 10.4038 10.043 9.92775C9.77896 9.45171 9.3569 9.08287 8.84978 8.885" stroke="#2A3548" stroke-linecap="round" stroke-linejoin="round"/>
            <path d="M6.93477 7.375C6.04738 7.63185 5.28253 8.2004 4.78083 8.97612C4.27913 9.75183 4.0743 10.6826 4.20401 11.5973C4.33372 12.5119 4.78925 13.349 5.48684 13.9547C6.18443 14.5603 7.07721 14.8938 8.00102 14.8938C8.92484 14.8938 9.81762 14.5603 10.5152 13.9547C11.2128 13.349 11.6683 12.5119 11.798 11.5973C11.9277 10.6826 11.7229 9.75183 11.2212 8.97612C10.7195 8.2004 9.95467 7.63185 9.06728 7.375M7.15227 8.885C6.64515 9.08287 6.22309 9.45171 5.95906 9.92775C5.69504 10.4038 5.60563 10.9571 5.7063 11.4921C5.80697 12.0271 6.0914 12.5101 6.5104 12.8576C6.92941 13.2051 7.45666 13.3953 8.00102 13.3953C8.54539 13.3953 9.07264 13.2051 9.49165 12.8576C9.91065 12.5101 10.1951 12.0271 10.2957 11.4921C10.3964 10.9571 10.307 10.4038 10.043 9.92775C9.77896 9.45171 9.3569 9.08287 8.84978 8.885" stroke="black" stroke-opacity="0.2" stroke-linecap="round" stroke-linejoin="round"/>
            <path d="M9.08726 7.22535L8.77976 9.35535C8.76277 9.47549 8.70269 9.58536 8.6107 9.66447C8.5187 9.74358 8.40108 9.78655 8.27976 9.78535H7.71476C7.59343 9.78655 7.47581 9.74358 7.38381 9.66447C7.29182 9.58536 7.23174 9.47549 7.21476 9.35535L6.90726 7.22285M6.70476 5.78285L6.31226 3.05785C6.2775 2.81596 6.29515 2.56941 6.36401 2.33493C6.43287 2.10045 6.55133 1.88352 6.71136 1.69882C6.8714 1.51413 7.06927 1.366 7.29156 1.26447C7.51385 1.16294 7.75537 1.11038 7.99976 1.11035V1.11035C8.24427 1.10996 8.48599 1.16224 8.70849 1.26364C8.93098 1.36504 9.12903 1.51317 9.28915 1.69796C9.44927 1.88275 9.5677 2.09986 9.6364 2.33452C9.7051 2.56918 9.72244 2.81589 9.68726 3.05785L9.29476 5.78535" stroke="#2A3548" stroke-miterlimit="10"/>
            <path d="M9.08726 7.22535L8.77976 9.35535C8.76277 9.47549 8.70269 9.58536 8.6107 9.66447C8.5187 9.74358 8.40108 9.78655 8.27976 9.78535H7.71476C7.59343 9.78655 7.47581 9.74358 7.38381 9.66447C7.29182 9.58536 7.23174 9.47549 7.21476 9.35535L6.90726 7.22285M6.70476 5.78285L6.31226 3.05785C6.2775 2.81596 6.29515 2.56941 6.36401 2.33493C6.43287 2.10045 6.55133 1.88352 6.71136 1.69882C6.8714 1.51413 7.06927 1.366 7.29156 1.26447C7.51385 1.16294 7.75537 1.11038 7.99976 1.11035V1.11035C8.24427 1.10996 8.48599 1.16224 8.70849 1.26364C8.93098 1.36504 9.12903 1.51317 9.28915 1.69796C9.44927 1.88275 9.5677 2.09986 9.6364 2.33452C9.7051 2.56918 9.72244 2.81589 9.68726 3.05785L9.29476 5.78535" stroke="black" stroke-opacity="0.2" stroke-miterlimit="10"/>
            <path d="M11.78 5.78491H4.22C3.82235 5.78491 3.5 6.10727 3.5 6.50491C3.5 6.90256 3.82235 7.22491 4.22 7.22491H11.78C12.1776 7.22491 12.5 6.90256 12.5 6.50491C12.5 6.10727 12.1776 5.78491 11.78 5.78491Z" stroke="#2A3548" stroke-miterlimit="10"/>
            <path d="M11.78 5.78491H4.22C3.82235 5.78491 3.5 6.10727 3.5 6.50491C3.5 6.90256 3.82235 7.22491 4.22 7.22491H11.78C12.1776 7.22491 12.5 6.90256 12.5 6.50491C12.5 6.10727 12.1776 5.78491 11.78 5.78491Z" stroke="black" stroke-opacity="0.2" stroke-miterlimit="10"/>
    </symbol>

    <symbol id="item-10" viewBox="0 0 16 16">
            <path d="M13 5.455V3.705C13 3.34977 12.93 2.99803 12.7941 2.66984C12.6582 2.34166 12.4589 2.04346 12.2077 1.79228C11.9565 1.54109 11.6583 1.34184 11.3302 1.20591C11.002 1.06997 10.6502 1 10.295 1H5.705C4.988 1.00132 4.30074 1.28674 3.79374 1.79374C3.28674 2.30074 3.00132 2.988 3 3.705V5.455C1.86 5.645 1 6.455 1 7.455V12.455C1 12.5876 1.05268 12.7148 1.14645 12.8086C1.24021 12.9023 1.36739 12.955 1.5 12.955H2V14.565C2 14.6976 2.05268 14.8248 2.14645 14.9186C2.24021 15.0123 2.36739 15.065 2.5 15.065H4.5C4.63261 15.065 4.75979 15.0123 4.85355 14.9186C4.94732 14.8248 5 14.6976 5 14.565V12.945H11V14.555C11 14.6876 11.0527 14.8148 11.1464 14.9086C11.2402 15.0023 11.3674 15.055 11.5 15.055H13.5C13.6326 15.055 13.7598 15.0023 13.8536 14.9086C13.9473 14.8148 14 14.6876 14 14.555V12.945H14.5C14.6326 12.945 14.7598 12.8923 14.8536 12.7986C14.9473 12.7048 15 12.5776 15 12.445V7.445C15 6.47 14.14 5.645 13 5.455ZM4 10.125V9.31C4.00131 9.09558 4.08707 8.89031 4.23869 8.73869C4.39031 8.58707 4.59558 8.50131 4.81 8.5H11.19C11.4044 8.50131 11.6097 8.58707 11.7613 8.73869C11.9129 8.89031 11.9987 9.09558 12 9.31V10.125H4ZM4 3.705C4 3.25281 4.17963 2.81913 4.49938 2.49938C4.81913 2.17963 5.25281 2 5.705 2H10.295C10.7472 2 11.1809 2.17963 11.5006 2.49938C11.8204 2.81913 12 3.25281 12 3.705V7.705C11.7499 7.57456 11.4721 7.50598 11.19 7.505H4.81C4.52831 7.50443 4.25057 7.57129 4 7.7V3.7V3.705ZM4 14.055H3V12.945H4V14.055ZM13 14.055H12V12.945H13V14.055ZM14 11.945H2V7.445C2 7 2.425 6.605 3 6.445V10.595C3 10.7276 3.05268 10.8548 3.14645 10.9486C3.24021 11.0423 3.36739 11.095 3.5 11.095H12.5C12.6326 11.095 12.7598 11.0423 12.8536 10.9486C12.9473 10.8548 13 10.7276 13 10.595V6.5C13.575 6.645 14 7.04 14 7.5V11.945Z" fill="#2A3548"/>
            <path d="M13 5.455V3.705C13 3.34977 12.93 2.99803 12.7941 2.66984C12.6582 2.34166 12.4589 2.04346 12.2077 1.79228C11.9565 1.54109 11.6583 1.34184 11.3302 1.20591C11.002 1.06997 10.6502 1 10.295 1H5.705C4.988 1.00132 4.30074 1.28674 3.79374 1.79374C3.28674 2.30074 3.00132 2.988 3 3.705V5.455C1.86 5.645 1 6.455 1 7.455V12.455C1 12.5876 1.05268 12.7148 1.14645 12.8086C1.24021 12.9023 1.36739 12.955 1.5 12.955H2V14.565C2 14.6976 2.05268 14.8248 2.14645 14.9186C2.24021 15.0123 2.36739 15.065 2.5 15.065H4.5C4.63261 15.065 4.75979 15.0123 4.85355 14.9186C4.94732 14.8248 5 14.6976 5 14.565V12.945H11V14.555C11 14.6876 11.0527 14.8148 11.1464 14.9086C11.2402 15.0023 11.3674 15.055 11.5 15.055H13.5C13.6326 15.055 13.7598 15.0023 13.8536 14.9086C13.9473 14.8148 14 14.6876 14 14.555V12.945H14.5C14.6326 12.945 14.7598 12.8923 14.8536 12.7986C14.9473 12.7048 15 12.5776 15 12.445V7.445C15 6.47 14.14 5.645 13 5.455ZM4 10.125V9.31C4.00131 9.09558 4.08707 8.89031 4.23869 8.73869C4.39031 8.58707 4.59558 8.50131 4.81 8.5H11.19C11.4044 8.50131 11.6097 8.58707 11.7613 8.73869C11.9129 8.89031 11.9987 9.09558 12 9.31V10.125H4ZM4 3.705C4 3.25281 4.17963 2.81913 4.49938 2.49938C4.81913 2.17963 5.25281 2 5.705 2H10.295C10.7472 2 11.1809 2.17963 11.5006 2.49938C11.8204 2.81913 12 3.25281 12 3.705V7.705C11.7499 7.57456 11.4721 7.50598 11.19 7.505H4.81C4.52831 7.50443 4.25057 7.57129 4 7.7V3.7V3.705ZM4 14.055H3V12.945H4V14.055ZM13 14.055H12V12.945H13V14.055ZM14 11.945H2V7.445C2 7 2.425 6.605 3 6.445V10.595C3 10.7276 3.05268 10.8548 3.14645 10.9486C3.24021 11.0423 3.36739 11.095 3.5 11.095H12.5C12.6326 11.095 12.7598 11.0423 12.8536 10.9486C12.9473 10.8548 13 10.7276 13 10.595V6.5C13.575 6.645 14 7.04 14 7.5V11.945Z" fill="black" fill-opacity="0.2"/>
    </symbol>

    <symbol id="item-11" viewBox="0 0 15 15">
            <path d="M14.6804 6.26169L14.6806 6.26185C14.7801 6.34981 14.8502 6.4661 14.8816 6.5951C14.913 6.72409 14.9041 6.85959 14.8562 6.98339L14.8561 6.98349C14.809 7.10566 14.726 7.21074 14.6181 7.28498C14.5103 7.35918 14.3825 7.39911 14.2516 7.39953C14.2515 7.39953 14.2515 7.39953 14.2514 7.39953L13.5015 7.39953H13.4015V7.49953V14.25C13.4015 14.4224 13.333 14.5877 13.2111 14.7096C13.0892 14.8315 12.9238 14.9 12.7513 14.9H2.24865C2.0762 14.9 1.91082 14.8315 1.78889 14.7096C1.66696 14.5877 1.59846 14.4224 1.59846 14.25V7.49953V7.39953H1.49846L0.748562 7.39953C0.748511 7.39953 0.748459 7.39953 0.748407 7.39953C0.617482 7.39911 0.489732 7.35918 0.381878 7.28498C0.273982 7.21074 0.19103 7.10566 0.143881 6.98349L0.143842 6.98339C0.0959099 6.85959 0.0870386 6.72409 0.118421 6.5951C0.149803 6.4661 0.219934 6.34981 0.31939 6.26185L0.319569 6.26169L7.07087 0.261696C7.07093 0.261636 7.071 0.261576 7.07107 0.261516C7.18969 0.157412 7.34215 0.1 7.5 0.1C7.65785 0.1 7.81031 0.157412 7.92893 0.261516C7.929 0.261576 7.92907 0.261636 7.92913 0.261696L14.6804 6.26169ZM8.25019 13.5999H8.35019V13.4999V11.2498C8.35019 11.0243 8.26061 10.8081 8.10117 10.6487C7.94173 10.4893 7.72548 10.3997 7.5 10.3997C7.27452 10.3997 7.05827 10.4893 6.89883 10.6487C6.73939 10.8081 6.64981 11.0243 6.64981 11.2498V13.4999V13.5999H6.74981H8.25019ZM12.0012 13.5999H12.1012V13.4999V7.49953V7.39953H12.0012H2.99884H2.89884V7.49953V13.4999V13.5999H2.99884H5.24942H5.34942V13.4999V11.2498C5.34942 10.6795 5.576 10.1326 5.9793 9.72939C6.38261 9.32616 6.92963 9.09962 7.5 9.09962C8.07038 9.09962 8.61738 9.32616 9.0207 9.72939C9.424 10.1326 9.65058 10.6795 9.65058 11.2498V13.4999V13.5999H9.75058H12.0012ZM2.65486 5.92467L2.45814 6.09943H2.72127H12.2787H12.5419L12.3451 5.92467L7.56641 1.6794L7.5 1.6204L7.43359 1.6794L2.65486 5.92467Z" fill="#2A3548"/>
            <path d="M14.6804 6.26169L14.6806 6.26185C14.7801 6.34981 14.8502 6.4661 14.8816 6.5951C14.913 6.72409 14.9041 6.85959 14.8562 6.98339L14.8561 6.98349C14.809 7.10566 14.726 7.21074 14.6181 7.28498C14.5103 7.35918 14.3825 7.39911 14.2516 7.39953C14.2515 7.39953 14.2515 7.39953 14.2514 7.39953L13.5015 7.39953H13.4015V7.49953V14.25C13.4015 14.4224 13.333 14.5877 13.2111 14.7096C13.0892 14.8315 12.9238 14.9 12.7513 14.9H2.24865C2.0762 14.9 1.91082 14.8315 1.78889 14.7096C1.66696 14.5877 1.59846 14.4224 1.59846 14.25V7.49953V7.39953H1.49846L0.748562 7.39953C0.748511 7.39953 0.748459 7.39953 0.748407 7.39953C0.617482 7.39911 0.489732 7.35918 0.381878 7.28498C0.273982 7.21074 0.19103 7.10566 0.143881 6.98349L0.143842 6.98339C0.0959099 6.85959 0.0870386 6.72409 0.118421 6.5951C0.149803 6.4661 0.219934 6.34981 0.31939 6.26185L0.319569 6.26169L7.07087 0.261696C7.07093 0.261636 7.071 0.261576 7.07107 0.261516C7.18969 0.157412 7.34215 0.1 7.5 0.1C7.65785 0.1 7.81031 0.157412 7.92893 0.261516C7.929 0.261576 7.92907 0.261636 7.92913 0.261696L14.6804 6.26169ZM8.25019 13.5999H8.35019V13.4999V11.2498C8.35019 11.0243 8.26061 10.8081 8.10117 10.6487C7.94173 10.4893 7.72548 10.3997 7.5 10.3997C7.27452 10.3997 7.05827 10.4893 6.89883 10.6487C6.73939 10.8081 6.64981 11.0243 6.64981 11.2498V13.4999V13.5999H6.74981H8.25019ZM12.0012 13.5999H12.1012V13.4999V7.49953V7.39953H12.0012H2.99884H2.89884V7.49953V13.4999V13.5999H2.99884H5.24942H5.34942V13.4999V11.2498C5.34942 10.6795 5.576 10.1326 5.9793 9.72939C6.38261 9.32616 6.92963 9.09962 7.5 9.09962C8.07038 9.09962 8.61738 9.32616 9.0207 9.72939C9.424 10.1326 9.65058 10.6795 9.65058 11.2498V13.4999V13.5999H9.75058H12.0012ZM2.65486 5.92467L2.45814 6.09943H2.72127H12.2787H12.5419L12.3451 5.92467L7.56641 1.6794L7.5 1.6204L7.43359 1.6794L2.65486 5.92467Z" fill="black" fill-opacity="0.2"/>
            <path d="M14.6804 6.26169L14.6806 6.26185C14.7801 6.34981 14.8502 6.4661 14.8816 6.5951C14.913 6.72409 14.9041 6.85959 14.8562 6.98339L14.8561 6.98349C14.809 7.10566 14.726 7.21074 14.6181 7.28498C14.5103 7.35918 14.3825 7.39911 14.2516 7.39953C14.2515 7.39953 14.2515 7.39953 14.2514 7.39953L13.5015 7.39953H13.4015V7.49953V14.25C13.4015 14.4224 13.333 14.5877 13.2111 14.7096C13.0892 14.8315 12.9238 14.9 12.7513 14.9H2.24865C2.0762 14.9 1.91082 14.8315 1.78889 14.7096C1.66696 14.5877 1.59846 14.4224 1.59846 14.25V7.49953V7.39953H1.49846L0.748562 7.39953C0.748511 7.39953 0.748459 7.39953 0.748407 7.39953C0.617482 7.39911 0.489732 7.35918 0.381878 7.28498C0.273982 7.21074 0.19103 7.10566 0.143881 6.98349L0.143842 6.98339C0.0959099 6.85959 0.0870386 6.72409 0.118421 6.5951C0.149803 6.4661 0.219934 6.34981 0.31939 6.26185L0.319569 6.26169L7.07087 0.261696C7.07093 0.261636 7.071 0.261576 7.07107 0.261516C7.18969 0.157412 7.34215 0.1 7.5 0.1C7.65785 0.1 7.81031 0.157412 7.92893 0.261516C7.929 0.261576 7.92907 0.261636 7.92913 0.261696L14.6804 6.26169ZM8.25019 13.5999H8.35019V13.4999V11.2498C8.35019 11.0243 8.26061 10.8081 8.10117 10.6487C7.94173 10.4893 7.72548 10.3997 7.5 10.3997C7.27452 10.3997 7.05827 10.4893 6.89883 10.6487C6.73939 10.8081 6.64981 11.0243 6.64981 11.2498V13.4999V13.5999H6.74981H8.25019ZM12.0012 13.5999H12.1012V13.4999V7.49953V7.39953H12.0012H2.99884H2.89884V7.49953V13.4999V13.5999H2.99884H5.24942H5.34942V13.4999V11.2498C5.34942 10.6795 5.576 10.1326 5.9793 9.72939C6.38261 9.32616 6.92963 9.09962 7.5 9.09962C8.07038 9.09962 8.61738 9.32616 9.0207 9.72939C9.424 10.1326 9.65058 10.6795 9.65058 11.2498V13.4999V13.5999H9.75058H12.0012ZM2.65486 5.92467L2.45814 6.09943H2.72127H12.2787H12.5419L12.3451 5.92467L7.56641 1.6794L7.5 1.6204L7.43359 1.6794L2.65486 5.92467Z" stroke="white" stroke-width="0.2"/>
    </symbol>

    <symbol id="item-12" viewBox="0 0 16 13">
            <path d="M14.5828 6.05484H6.05742C5.58283 6.05438 5.1278 5.86569 4.79217 5.53016C4.45653 5.19463 4.26769 4.73967 4.26709 4.26508V1.90674C4.26727 1.66262 4.31736 1.42112 4.41428 1.19706C4.5112 0.973007 4.65291 0.771132 4.83069 0.603838C5.00847 0.436545 5.21858 0.307364 5.44811 0.224231C5.67764 0.141098 5.92174 0.105769 6.16542 0.120413L14.3079 0.566137C14.5762 0.580701 14.8378 0.655515 15.0732 0.785026C15.3087 0.914536 15.5119 1.09542 15.6679 1.31424C15.8239 1.53306 15.9285 1.7842 15.9741 2.04901C16.0198 2.31383 16.0051 2.58552 15.9314 2.8439L15.1313 5.64054C15.0972 5.75977 15.0253 5.86467 14.9263 5.93941C14.8274 6.01414 14.7068 6.05466 14.5828 6.05484ZM6.05742 1.26044C5.9723 1.26006 5.88795 1.2765 5.80921 1.30881C5.73047 1.34112 5.65888 1.38867 5.59856 1.44872C5.53825 1.50877 5.49039 1.58015 5.45773 1.65875C5.42507 1.73735 5.40826 1.82163 5.40826 1.90674V4.26508C5.40841 4.35018 5.42532 4.43441 5.45802 4.51298C5.49073 4.59154 5.53859 4.66289 5.59887 4.72296C5.65915 4.78303 5.73067 4.83064 5.80934 4.86306C5.88802 4.89549 5.97232 4.9121 6.05742 4.91195H14.1547L14.8319 2.5319C14.8587 2.43853 14.864 2.34033 14.8476 2.2446C14.8312 2.14887 14.7934 2.05807 14.7371 1.97894C14.6808 1.89982 14.6073 1.83441 14.5222 1.78758C14.4371 1.74075 14.3426 1.71371 14.2456 1.70845L6.09913 1.26158L6.05742 1.26044Z" fill="#2A3548"/>
            <path d="M14.5828 6.05484H6.05742C5.58283 6.05438 5.1278 5.86569 4.79217 5.53016C4.45653 5.19463 4.26769 4.73967 4.26709 4.26508V1.90674C4.26727 1.66262 4.31736 1.42112 4.41428 1.19706C4.5112 0.973007 4.65291 0.771132 4.83069 0.603838C5.00847 0.436545 5.21858 0.307364 5.44811 0.224231C5.67764 0.141098 5.92174 0.105769 6.16542 0.120413L14.3079 0.566137C14.5762 0.580701 14.8378 0.655515 15.0732 0.785026C15.3087 0.914536 15.5119 1.09542 15.6679 1.31424C15.8239 1.53306 15.9285 1.7842 15.9741 2.04901C16.0198 2.31383 16.0051 2.58552 15.9314 2.8439L15.1313 5.64054C15.0972 5.75977 15.0253 5.86467 14.9263 5.93941C14.8274 6.01414 14.7068 6.05466 14.5828 6.05484ZM6.05742 1.26044C5.9723 1.26006 5.88795 1.2765 5.80921 1.30881C5.73047 1.34112 5.65888 1.38867 5.59856 1.44872C5.53825 1.50877 5.49039 1.58015 5.45773 1.65875C5.42507 1.73735 5.40826 1.82163 5.40826 1.90674V4.26508C5.40841 4.35018 5.42532 4.43441 5.45802 4.51298C5.49073 4.59154 5.53859 4.66289 5.59887 4.72296C5.65915 4.78303 5.73067 4.83064 5.80934 4.86306C5.88802 4.89549 5.97232 4.9121 6.05742 4.91195H14.1547L14.8319 2.5319C14.8587 2.43853 14.864 2.34033 14.8476 2.2446C14.8312 2.14887 14.7934 2.05807 14.7371 1.97894C14.6808 1.89982 14.6073 1.83441 14.5222 1.78758C14.4371 1.74075 14.3426 1.71371 14.2456 1.70845L6.09913 1.26158L6.05742 1.26044Z" fill="black" fill-opacity="0.2"/>
            <path d="M4.83533 4.80236H3.61987C3.18353 4.80191 2.76519 4.62837 2.45665 4.31983C2.14811 4.01129 1.97457 3.59295 1.97412 3.15661V3.01489C1.97457 2.57855 2.14811 2.16021 2.45665 1.85167C2.76519 1.54313 3.18353 1.36959 3.61987 1.36914H4.83533C4.98689 1.36914 5.13223 1.42935 5.2394 1.53651C5.34657 1.64368 5.40677 1.78903 5.40677 1.94058V4.23092C5.40677 4.38248 5.34657 4.52783 5.2394 4.63499C5.13223 4.74216 4.98689 4.80236 4.83533 4.80236ZM3.61987 2.51202C3.48655 2.51218 3.35873 2.5652 3.26446 2.65948C3.17019 2.75375 3.11716 2.88157 3.117 3.01489V3.15661C3.11716 3.28993 3.17019 3.41775 3.26446 3.51203C3.35873 3.6063 3.48655 3.65933 3.61987 3.65948H4.26389V2.51202H3.61987Z" fill="#2A3548"/>
            <path d="M4.83533 4.80236H3.61987C3.18353 4.80191 2.76519 4.62837 2.45665 4.31983C2.14811 4.01129 1.97457 3.59295 1.97412 3.15661V3.01489C1.97457 2.57855 2.14811 2.16021 2.45665 1.85167C2.76519 1.54313 3.18353 1.36959 3.61987 1.36914H4.83533C4.98689 1.36914 5.13223 1.42935 5.2394 1.53651C5.34657 1.64368 5.40677 1.78903 5.40677 1.94058V4.23092C5.40677 4.38248 5.34657 4.52783 5.2394 4.63499C5.13223 4.74216 4.98689 4.80236 4.83533 4.80236ZM3.61987 2.51202C3.48655 2.51218 3.35873 2.5652 3.26446 2.65948C3.17019 2.75375 3.11716 2.88157 3.117 3.01489V3.15661C3.11716 3.28993 3.17019 3.41775 3.26446 3.51203C3.35873 3.6063 3.48655 3.65933 3.61987 3.65948H4.26389V2.51202H3.61987Z" fill="black" fill-opacity="0.2"/>
            <path d="M2.54577 3.65778H0.571442C0.419886 3.65778 0.274538 3.59757 0.167371 3.4904C0.0602053 3.38324 0 3.23789 0 3.08633C0 2.93478 0.0602053 2.78943 0.167371 2.68226C0.274538 2.5751 0.419886 2.51489 0.571442 2.51489H2.54577C2.69733 2.51489 2.84268 2.5751 2.94984 2.68226C3.05701 2.78943 3.11722 2.93478 3.11722 3.08633C3.11722 3.23789 3.05701 3.38324 2.94984 3.4904C2.84268 3.59757 2.69733 3.65778 2.54577 3.65778ZM11.7517 12.1465H10.9277C10.7761 12.1465 10.6308 12.0863 10.5236 11.9792C10.4164 11.872 10.3562 11.7267 10.3562 11.5751V5.48353C10.3562 5.33198 10.4164 5.18663 10.5236 5.07946C10.6308 4.9723 10.7761 4.91209 10.9277 4.91209H13.3643C13.4438 4.91214 13.5225 4.92879 13.5952 4.96096C13.6679 4.99314 13.7331 5.04014 13.7866 5.09895C13.84 5.15791 13.8807 5.22729 13.9059 5.30272C13.9312 5.37816 13.9406 5.45801 13.9335 5.53725L13.4592 10.5934C13.4204 11.0189 13.2236 11.4145 12.9075 11.702C12.5914 11.9896 12.179 12.1482 11.7517 12.1465ZM11.4991 11.0037H11.7517C11.8944 11.0043 12.0322 10.9515 12.1379 10.8557C12.2437 10.7599 12.3097 10.628 12.3231 10.4859L12.738 6.05497H11.4991V11.0037Z" fill="#2A3548"/>
            <path d="M2.54577 3.65778H0.571442C0.419886 3.65778 0.274538 3.59757 0.167371 3.4904C0.0602053 3.38324 0 3.23789 0 3.08633C0 2.93478 0.0602053 2.78943 0.167371 2.68226C0.274538 2.5751 0.419886 2.51489 0.571442 2.51489H2.54577C2.69733 2.51489 2.84268 2.5751 2.94984 2.68226C3.05701 2.78943 3.11722 2.93478 3.11722 3.08633C3.11722 3.23789 3.05701 3.38324 2.94984 3.4904C2.84268 3.59757 2.69733 3.65778 2.54577 3.65778ZM11.7517 12.1465H10.9277C10.7761 12.1465 10.6308 12.0863 10.5236 11.9792C10.4164 11.872 10.3562 11.7267 10.3562 11.5751V5.48353C10.3562 5.33198 10.4164 5.18663 10.5236 5.07946C10.6308 4.9723 10.7761 4.91209 10.9277 4.91209H13.3643C13.4438 4.91214 13.5225 4.92879 13.5952 4.96096C13.6679 4.99314 13.7331 5.04014 13.7866 5.09895C13.84 5.15791 13.8807 5.22729 13.9059 5.30272C13.9312 5.37816 13.9406 5.45801 13.9335 5.53725L13.4592 10.5934C13.4204 11.0189 13.2236 11.4145 12.9075 11.702C12.5914 11.9896 12.179 12.1482 11.7517 12.1465ZM11.4991 11.0037H11.7517C11.8944 11.0043 12.0322 10.9515 12.1379 10.8557C12.2437 10.7599 12.3097 10.628 12.3231 10.4859L12.738 6.05497H11.4991V11.0037Z" fill="black" fill-opacity="0.2"/>
            <path d="M10.9276 8.49194H9.63327C9.1786 8.49194 8.74256 8.31132 8.42106 7.98983C8.09956 7.66833 7.91895 7.23228 7.91895 6.77761V5.4833C7.91895 5.33174 7.97915 5.18639 8.08632 5.07923C8.19348 4.97206 8.33883 4.91186 8.49039 4.91186H10.9276C11.0791 4.91186 11.2245 4.97206 11.3317 5.07923C11.4388 5.18639 11.499 5.33174 11.499 5.4833V7.9205C11.499 8.07205 11.4388 8.2174 11.3317 8.32457C11.2245 8.43174 11.0791 8.49194 10.9276 8.49194ZM9.06183 6.05474V6.77761C9.06183 6.92917 9.12203 7.07452 9.2292 7.18169C9.33637 7.28885 9.48171 7.34906 9.63327 7.34906H10.3561V6.05474H9.06183ZM11.7516 12.1463H9.40412C9.25257 12.1463 9.10722 12.0861 9.00005 11.9789C8.89289 11.8718 8.83268 11.7264 8.83268 11.5749C8.83268 11.4233 8.89289 11.278 9.00005 11.1708C9.10722 11.0636 9.25257 11.0034 9.40412 11.0034H11.7516C11.9032 11.0034 12.0485 11.0636 12.1557 11.1708C12.2628 11.278 12.323 11.4233 12.323 11.5749C12.323 11.7264 12.2628 11.8718 12.1557 11.9789C12.0485 12.0861 11.9032 12.1463 11.7516 12.1463ZM12.1459 6.05474C11.9943 6.05474 11.849 5.99454 11.7418 5.88737C11.6347 5.7802 11.5745 5.63485 11.5745 5.4833V1.20206C11.5745 1.0505 11.6347 0.905153 11.7418 0.797987C11.849 0.69082 11.9943 0.630615 12.1459 0.630615C12.2975 0.630615 12.4428 0.69082 12.55 0.797987C12.6571 0.905153 12.7173 1.0505 12.7173 1.20206V5.4833C12.7173 5.63485 12.6571 5.7802 12.55 5.88737C12.4428 5.99454 12.2975 6.05474 12.1459 6.05474Z" fill="#2A3548"/>
            <path d="M10.9276 8.49194H9.63327C9.1786 8.49194 8.74256 8.31132 8.42106 7.98983C8.09956 7.66833 7.91895 7.23228 7.91895 6.77761V5.4833C7.91895 5.33174 7.97915 5.18639 8.08632 5.07923C8.19348 4.97206 8.33883 4.91186 8.49039 4.91186H10.9276C11.0791 4.91186 11.2245 4.97206 11.3317 5.07923C11.4388 5.18639 11.499 5.33174 11.499 5.4833V7.9205C11.499 8.07205 11.4388 8.2174 11.3317 8.32457C11.2245 8.43174 11.0791 8.49194 10.9276 8.49194ZM9.06183 6.05474V6.77761C9.06183 6.92917 9.12203 7.07452 9.2292 7.18169C9.33637 7.28885 9.48171 7.34906 9.63327 7.34906H10.3561V6.05474H9.06183ZM11.7516 12.1463H9.40412C9.25257 12.1463 9.10722 12.0861 9.00005 11.9789C8.89289 11.8718 8.83268 11.7264 8.83268 11.5749C8.83268 11.4233 8.89289 11.278 9.00005 11.1708C9.10722 11.0636 9.25257 11.0034 9.40412 11.0034H11.7516C11.9032 11.0034 12.0485 11.0636 12.1557 11.1708C12.2628 11.278 12.323 11.4233 12.323 11.5749C12.323 11.7264 12.2628 11.8718 12.1557 11.9789C12.0485 12.0861 11.9032 12.1463 11.7516 12.1463ZM12.1459 6.05474C11.9943 6.05474 11.849 5.99454 11.7418 5.88737C11.6347 5.7802 11.5745 5.63485 11.5745 5.4833V1.20206C11.5745 1.0505 11.6347 0.905153 11.7418 0.797987C11.849 0.69082 11.9943 0.630615 12.1459 0.630615C12.2975 0.630615 12.4428 0.69082 12.55 0.797987C12.6571 0.905153 12.7173 1.0505 12.7173 1.20206V5.4833C12.7173 5.63485 12.6571 5.7802 12.55 5.88737C12.4428 5.99454 12.2975 6.05474 12.1459 6.05474Z" fill="black" fill-opacity="0.2"/>
    </symbol>

    <symbol id="item-13" viewBox="0 0 16 16">
            <path d="M5.81771 4.94457L12.3177 1.30457C12.4174 1.24954 12.5308 1.22427 12.6444 1.23176C12.758 1.23925 12.8671 1.27919 12.9587 1.34684C13.0503 1.41449 13.1206 1.507 13.1612 1.6134C13.2018 1.71979 13.211 1.8356 13.1877 1.94707L11.6552 9.24957C11.6343 9.34647 11.5895 9.43661 11.5249 9.5118C11.4603 9.58699 11.3779 9.64485 11.2853 9.68012C11.1926 9.71539 11.0927 9.72695 10.9944 9.71376C10.8962 9.70056 10.8028 9.66303 10.7227 9.60457L5.75021 5.93957C5.67047 5.88041 5.60687 5.80216 5.56527 5.71201C5.52366 5.62185 5.50538 5.52269 5.5121 5.42363C5.51882 5.32457 5.55033 5.22878 5.60373 5.14507C5.65713 5.06137 5.73071 4.99242 5.81771 4.94457Z" stroke="#2A3548" stroke-linecap="round" stroke-linejoin="round"/>
            <path d="M5.81771 4.94457L12.3177 1.30457C12.4174 1.24954 12.5308 1.22427 12.6444 1.23176C12.758 1.23925 12.8671 1.27919 12.9587 1.34684C13.0503 1.41449 13.1206 1.507 13.1612 1.6134C13.2018 1.71979 13.211 1.8356 13.1877 1.94707L11.6552 9.24957C11.6343 9.34647 11.5895 9.43661 11.5249 9.5118C11.4603 9.58699 11.3779 9.64485 11.2853 9.68012C11.1926 9.71539 11.0927 9.72695 10.9944 9.71376C10.8962 9.70056 10.8028 9.66303 10.7227 9.60457L5.75021 5.93957C5.67047 5.88041 5.60687 5.80216 5.56527 5.71201C5.52366 5.62185 5.50538 5.52269 5.5121 5.42363C5.51882 5.32457 5.55033 5.22878 5.60373 5.14507C5.65713 5.06137 5.73071 4.99242 5.81771 4.94457Z" stroke="black" stroke-opacity="0.2" stroke-linecap="round" stroke-linejoin="round"/>
            <path d="M6.65771 9.91742L9.32272 6.29492" stroke="#2A3548" stroke-linecap="round" stroke-linejoin="round"/>
            <path d="M6.65771 9.91742L9.32272 6.29492" stroke="black" stroke-opacity="0.2" stroke-linecap="round" stroke-linejoin="round"/>
            <path d="M6.22199 9.59819L7.08367 10.2325C7.19046 10.3112 7.26165 10.429 7.28157 10.5601C7.30149 10.6912 7.26851 10.8248 7.18989 10.9316L4.62875 14.4106C4.49117 14.5974 4.28499 14.722 4.05556 14.7569C3.82613 14.7917 3.59224 14.734 3.40536 14.5964L3.14766 14.4067C2.96078 14.2692 2.8362 14.063 2.80134 13.8335C2.76648 13.6041 2.82419 13.3702 2.96177 13.1833L5.52291 9.70441C5.60153 9.59762 5.71935 9.52644 5.85045 9.50651C5.98155 9.48659 6.1152 9.51957 6.22199 9.59819V9.59819Z" stroke="#2A3548" stroke-linecap="round" stroke-linejoin="round"/>
            <path d="M6.22199 9.59819L7.08367 10.2325C7.19046 10.3112 7.26165 10.429 7.28157 10.5601C7.30149 10.6912 7.26851 10.8248 7.18989 10.9316L4.62875 14.4106C4.49117 14.5974 4.28499 14.722 4.05556 14.7569C3.82613 14.7917 3.59224 14.734 3.40536 14.5964L3.14766 14.4067C2.96078 14.2692 2.8362 14.063 2.80134 13.8335C2.76648 13.6041 2.82419 13.3702 2.96177 13.1833L5.52291 9.70441C5.60153 9.59762 5.71935 9.52644 5.85045 9.50651C5.98155 9.48659 6.1152 9.51957 6.22199 9.59819V9.59819Z" stroke="black" stroke-opacity="0.2" stroke-linecap="round" stroke-linejoin="round"/>
    </symbol>

    <symbol id="item-14" viewBox="0 0 16 16">
            <g clip-path="url(#clip0_161_1685)">
                <path d="M15 8C15 11.9 11.8 15 8 15C4.2 15 1 11.8 1 8C1 4.2 4.1 1 8 1C11.9 1 15 4.2 15 8V8Z" stroke="#2A3548" stroke-miterlimit="10"/>
                <path d="M15 8C15 11.9 11.8 15 8 15C4.2 15 1 11.8 1 8C1 4.2 4.1 1 8 1C11.9 1 15 4.2 15 8V8Z" stroke="black" stroke-opacity="0.2" stroke-miterlimit="10"/>
                <path d="M13.1135 6.31387L13.9078 4.16788C13.7092 3.86131 13.5106 3.55474 13.3121 3.35036C13.2128 3.45255 13.1135 3.45255 13.0142 3.65693L12.1206 6.21168L10.4326 6.92701L8.44681 5.39416L8.34752 3.14599L10.4326 1.61314C10.5319 1.51095 10.6312 1.40876 10.6312 1.30657C10.3333 1.20438 9.93617 1.10219 9.6383 1L7.75177 2.32847L6.06383 1C5.66667 1.10219 5.36879 1.20438 5.07092 1.40876C5.07092 1.51095 5.17021 1.61314 5.2695 1.61314L7.35461 3.14599L7.4539 5.39416L5.56738 6.72263L3.58156 6.10949L2.68794 3.75912C2.68794 3.65693 2.58865 3.55474 2.48936 3.45255L1.89362 4.37226L2.68794 6.51825L1 7.9489C1 8.35766 1 8.66423 1.09929 9.07299C1.19858 9.07299 1.29787 9.07299 1.39716 8.9708L3.48227 7.23358L5.2695 7.74453L5.96454 9.9927L4.77305 11.5255L2.39007 11.6277C2.29078 11.6277 2.29078 11.7299 2.19149 11.7299C2.39007 12.1387 2.68794 12.4453 2.98582 12.7518L4.87234 12.6496L5.56738 14.5912C5.86525 14.6934 6.16312 14.7956 6.56028 14.8978C6.56028 14.7956 6.65957 14.5912 6.56028 14.4891L5.76596 12.0365L6.85816 10.708H9.14184L9.93617 12.1387L8.94326 14.4891C8.84397 14.6934 8.94326 14.7956 9.04255 15C9.34043 15 9.6383 14.8978 9.93617 14.7956L10.8298 12.5474L13.1135 12.7518C13.3121 12.5474 13.5106 12.3431 13.6099 12.0365C13.5106 11.9343 13.4113 11.8321 13.2128 11.8321L10.6312 11.5255L9.93617 10.0949L10.7305 7.74453L12.5177 7.0292L14.5035 8.66423C14.6028 8.76642 14.7021 8.76642 14.8014 8.76642H14.9007C14.9007 8.45985 15 8.15328 15 7.9489V7.84671L13.1135 6.31387ZM8.94326 9.58394H6.85816L6.16312 7.54015L7.95035 6.21168L9.6383 7.54015L8.94326 9.58394Z" fill="#2A3548"/>
                <path d="M13.1135 6.31387L13.9078 4.16788C13.7092 3.86131 13.5106 3.55474 13.3121 3.35036C13.2128 3.45255 13.1135 3.45255 13.0142 3.65693L12.1206 6.21168L10.4326 6.92701L8.44681 5.39416L8.34752 3.14599L10.4326 1.61314C10.5319 1.51095 10.6312 1.40876 10.6312 1.30657C10.3333 1.20438 9.93617 1.10219 9.6383 1L7.75177 2.32847L6.06383 1C5.66667 1.10219 5.36879 1.20438 5.07092 1.40876C5.07092 1.51095 5.17021 1.61314 5.2695 1.61314L7.35461 3.14599L7.4539 5.39416L5.56738 6.72263L3.58156 6.10949L2.68794 3.75912C2.68794 3.65693 2.58865 3.55474 2.48936 3.45255L1.89362 4.37226L2.68794 6.51825L1 7.9489C1 8.35766 1 8.66423 1.09929 9.07299C1.19858 9.07299 1.29787 9.07299 1.39716 8.9708L3.48227 7.23358L5.2695 7.74453L5.96454 9.9927L4.77305 11.5255L2.39007 11.6277C2.29078 11.6277 2.29078 11.7299 2.19149 11.7299C2.39007 12.1387 2.68794 12.4453 2.98582 12.7518L4.87234 12.6496L5.56738 14.5912C5.86525 14.6934 6.16312 14.7956 6.56028 14.8978C6.56028 14.7956 6.65957 14.5912 6.56028 14.4891L5.76596 12.0365L6.85816 10.708H9.14184L9.93617 12.1387L8.94326 14.4891C8.84397 14.6934 8.94326 14.7956 9.04255 15C9.34043 15 9.6383 14.8978 9.93617 14.7956L10.8298 12.5474L13.1135 12.7518C13.3121 12.5474 13.5106 12.3431 13.6099 12.0365C13.5106 11.9343 13.4113 11.8321 13.2128 11.8321L10.6312 11.5255L9.93617 10.0949L10.7305 7.74453L12.5177 7.0292L14.5035 8.66423C14.6028 8.76642 14.7021 8.76642 14.8014 8.76642H14.9007C14.9007 8.45985 15 8.15328 15 7.9489V7.84671L13.1135 6.31387ZM8.94326 9.58394H6.85816L6.16312 7.54015L7.95035 6.21168L9.6383 7.54015L8.94326 9.58394Z" fill="black" fill-opacity="0.2"/>
            </g>
            <defs>
                <clipPath id="clip0_161_1685">
                    <rect width="16" height="16" fill="white"/>
                </clipPath>
            </defs>
    </symbol>

    <symbol id="item-15" viewBox="0 0 16 16">
            <path d="M7.56857 3.98897C7.59576 3.96578 7.62296 3.94066 7.65211 3.91735C7.69297 3.88251 7.73565 3.85156 7.77847 3.81866C7.80566 3.79936 7.83286 3.77799 7.86006 3.7587C7.90859 3.72386 7.95726 3.69291 8.0058 3.66001C8.0291 3.6446 8.05239 3.62906 8.07581 3.61365C8.1496 3.56923 8.22351 3.52468 8.3012 3.48595C10.1939 2.49187 12.5453 3.2171 13.5421 5.10078C14.5409 6.98446 13.8122 9.32459 11.9195 10.3166C11.8437 10.3572 11.7659 10.3939 11.6863 10.4287C11.661 10.4404 11.6338 10.45 11.6086 10.4597C11.5542 10.4828 11.4998 10.5041 11.4454 10.5235C11.4143 10.5352 11.3812 10.5448 11.3501 10.5564C11.2997 10.5738 11.249 10.5893 11.1966 10.6047C11.1616 10.6144 11.1266 10.624 11.0917 10.6337C11.0626 10.6415 11.0334 10.6511 11.0043 10.6569C10.9732 10.7575 10.9381 10.858 10.9013 10.9567C10.8994 10.9625 10.8974 10.9664 10.8955 10.9721C10.8508 11.0882 10.8022 11.2023 10.7497 11.3144C10.7342 11.3473 10.7186 11.3802 10.7031 11.4131C10.6585 11.5059 10.6098 11.5969 10.5593 11.6878C10.5457 11.7129 10.5321 11.738 10.5185 11.7612C10.5126 11.7709 10.5087 11.7805 10.503 11.7902C11.1695 11.74 11.8108 11.5543 12.4113 11.239C14.8133 9.97802 15.7383 7.00561 14.4712 4.61521C13.2001 2.22322 10.2134 1.30463 7.81151 2.5655C7.21111 2.88072 6.69605 3.30242 6.27637 3.82068C6.69032 3.84774 7.10034 3.92506 7.49867 4.04693C7.52196 4.02763 7.54525 4.00833 7.56855 3.98891L7.56857 3.98897Z" fill="#2A3548"/>
            <path d="M7.56857 3.98897C7.59576 3.96578 7.62296 3.94066 7.65211 3.91735C7.69297 3.88251 7.73565 3.85156 7.77847 3.81866C7.80566 3.79936 7.83286 3.77799 7.86006 3.7587C7.90859 3.72386 7.95726 3.69291 8.0058 3.66001C8.0291 3.6446 8.05239 3.62906 8.07581 3.61365C8.1496 3.56923 8.22351 3.52468 8.3012 3.48595C10.1939 2.49187 12.5453 3.2171 13.5421 5.10078C14.5409 6.98446 13.8122 9.32459 11.9195 10.3166C11.8437 10.3572 11.7659 10.3939 11.6863 10.4287C11.661 10.4404 11.6338 10.45 11.6086 10.4597C11.5542 10.4828 11.4998 10.5041 11.4454 10.5235C11.4143 10.5352 11.3812 10.5448 11.3501 10.5564C11.2997 10.5738 11.249 10.5893 11.1966 10.6047C11.1616 10.6144 11.1266 10.624 11.0917 10.6337C11.0626 10.6415 11.0334 10.6511 11.0043 10.6569C10.9732 10.7575 10.9381 10.858 10.9013 10.9567C10.8994 10.9625 10.8974 10.9664 10.8955 10.9721C10.8508 11.0882 10.8022 11.2023 10.7497 11.3144C10.7342 11.3473 10.7186 11.3802 10.7031 11.4131C10.6585 11.5059 10.6098 11.5969 10.5593 11.6878C10.5457 11.7129 10.5321 11.738 10.5185 11.7612C10.5126 11.7709 10.5087 11.7805 10.503 11.7902C11.1695 11.74 11.8108 11.5543 12.4113 11.239C14.8133 9.97802 15.7383 7.00561 14.4712 4.61521C13.2001 2.22322 10.2134 1.30463 7.81151 2.5655C7.21111 2.88072 6.69605 3.30242 6.27637 3.82068C6.69032 3.84774 7.10034 3.92506 7.49867 4.04693C7.52196 4.02763 7.54525 4.00833 7.56855 3.98891L7.56857 3.98897Z" fill="black" fill-opacity="0.2"/>
            <path d="M8.22369 13.434C8.93303 13.0627 9.52175 12.5406 9.97654 11.8868C10.2835 11.4458 10.5149 10.9585 10.6625 10.4383C11.0123 9.21792 10.8763 7.92985 10.2835 6.80825C9.68881 5.68855 8.69774 4.84919 7.4891 4.4468C6.97418 4.27663 6.43973 4.1896 5.90139 4.19348C5.10264 4.19737 4.3371 4.38684 3.62775 4.76008C1.2258 6.02109 0.300853 8.99351 1.56793 11.3839C2.835 13.7763 5.8217 14.6949 8.22359 13.434L8.22369 13.434ZM4.1155 5.68265C4.43614 5.51442 4.78203 5.39061 5.14744 5.31719C5.67799 5.20892 6.21423 5.21087 6.74088 5.32496C7.86794 5.56675 8.82024 6.28616 9.35651 7.29762C9.89292 8.30908 9.95122 9.49848 9.51397 10.5603C9.30993 11.0573 9.00868 11.4983 8.62011 11.8735C8.35191 12.1307 8.05455 12.3454 7.73391 12.5137C5.84118 13.5077 3.48979 12.7825 2.49306 10.8988C1.49612 9.01682 2.22291 6.67469 4.11565 5.68272L4.1155 5.68265Z" fill="#2A3548"/>
            <path d="M8.22369 13.434C8.93303 13.0627 9.52175 12.5406 9.97654 11.8868C10.2835 11.4458 10.5149 10.9585 10.6625 10.4383C11.0123 9.21792 10.8763 7.92985 10.2835 6.80825C9.68881 5.68855 8.69774 4.84919 7.4891 4.4468C6.97418 4.27663 6.43973 4.1896 5.90139 4.19348C5.10264 4.19737 4.3371 4.38684 3.62775 4.76008C1.2258 6.02109 0.300853 8.99351 1.56793 11.3839C2.835 13.7763 5.8217 14.6949 8.22359 13.434L8.22369 13.434ZM4.1155 5.68265C4.43614 5.51442 4.78203 5.39061 5.14744 5.31719C5.67799 5.20892 6.21423 5.21087 6.74088 5.32496C7.86794 5.56675 8.82024 6.28616 9.35651 7.29762C9.89292 8.30908 9.95122 9.49848 9.51397 10.5603C9.30993 11.0573 9.00868 11.4983 8.62011 11.8735C8.35191 12.1307 8.05455 12.3454 7.73391 12.5137C5.84118 13.5077 3.48979 12.7825 2.49306 10.8988C1.49612 9.01682 2.22291 6.67469 4.11565 5.68272L4.1155 5.68265Z" fill="black" fill-opacity="0.2"/>
            <path d="M5.21336 7.45085C5.21531 7.46626 5.21727 7.48374 5.21922 7.49915C5.2347 7.63255 5.25618 7.76607 5.28533 7.89753C5.28728 7.91113 5.29118 7.9246 5.29509 7.9382C5.32423 8.07159 5.35924 8.20511 5.39997 8.3385C5.40387 8.34821 5.40778 8.3578 5.40973 8.36945C5.45254 8.50479 5.50108 8.63831 5.55547 8.76975C5.55743 8.77558 5.56133 8.78141 5.56328 8.78711C5.61963 8.92244 5.68378 9.05791 5.75366 9.18936C5.82367 9.32081 5.89941 9.44851 5.97905 9.57232C5.98295 9.57815 5.9849 9.58204 5.9888 9.58774C6.06649 9.70766 6.15004 9.82175 6.23943 9.9339C6.24529 9.94167 6.2531 9.95125 6.25882 9.95902C6.34432 10.0673 6.43567 10.1699 6.53093 10.2704C6.54069 10.2801 6.55032 10.2916 6.56008 10.3013C6.65338 10.398 6.75241 10.4908 6.85352 10.5797C6.86523 10.5914 6.87877 10.601 6.89048 10.6126C6.99159 10.6997 7.09647 10.7809 7.20331 10.8601C7.2188 10.8718 7.23246 10.8814 7.24794 10.893C7.35478 10.9684 7.46747 11.042 7.5803 11.1097C7.59773 11.1194 7.61335 11.129 7.63079 11.1387C7.74543 11.2045 7.86203 11.2664 7.98254 11.3225C7.99998 11.3302 8.01755 11.3398 8.03694 11.3476C8.15744 11.4037 8.28184 11.4539 8.40808 11.5004C8.41589 11.5043 8.42357 11.5062 8.43332 11.5101C8.47796 11.4638 8.52468 11.4173 8.56736 11.369C8.58102 11.3536 8.59651 11.338 8.60822 11.3226C8.67823 11.2395 8.74421 11.1524 8.80446 11.0635C8.81994 11.0422 8.8336 11.019 8.84727 10.9957C8.8919 10.9261 8.93667 10.8565 8.97558 10.7829C8.99106 10.7539 9.00863 10.7249 9.02412 10.694C9.03778 10.6689 9.04741 10.6437 9.06107 10.6167C9.05717 10.6147 9.05327 10.6147 9.04936 10.6128C8.92886 10.5779 8.81031 10.5393 8.69371 10.4948C8.69176 10.4948 8.68981 10.4928 8.6859 10.4928C8.57126 10.4484 8.46052 10.3961 8.3516 10.342C8.34184 10.3361 8.33026 10.3323 8.3205 10.3266C8.21757 10.2724 8.11646 10.2144 8.0173 10.1506C8.00363 10.1408 7.9901 10.1332 7.97448 10.1235C7.87923 10.0616 7.78788 9.99385 7.69848 9.92431C7.68481 9.91266 7.66933 9.90113 7.65566 9.88947C7.56821 9.81785 7.48272 9.74248 7.40308 9.66517C7.38942 9.65157 7.37783 9.64004 7.36417 9.62644C7.28258 9.54524 7.20476 9.4621 7.13293 9.37313C7.12317 9.36147 7.11354 9.348 7.10378 9.33635C7.03 9.24543 6.95803 9.15063 6.89193 9.05208C6.88607 9.04237 6.88022 9.03472 6.87449 9.02501C6.80643 8.92063 6.74046 8.81417 6.68216 8.70396C6.62386 8.59375 6.57142 8.47966 6.5247 8.3636C6.5208 8.35389 6.51689 8.34431 6.51299 8.33459C6.46289 8.22438 6.42411 8.11223 6.39105 8.00007C6.38715 7.98466 6.38129 7.96912 6.37739 7.95371C6.34629 7.8435 6.32104 7.73329 6.2997 7.62101C6.2958 7.60365 6.2919 7.58423 6.28994 7.56687C6.27055 7.45472 6.25494 7.34451 6.24713 7.23235C6.24518 7.215 6.24518 7.19557 6.24323 7.17822C6.23542 7.06606 6.23151 6.95197 6.23347 6.83786C6.23347 6.8205 6.23542 6.80496 6.23542 6.78761C6.23932 6.67157 6.24713 6.55553 6.26066 6.43949C6.26262 6.42784 6.26457 6.41631 6.26652 6.40466C6.282 6.28473 6.30348 6.16286 6.33067 6.04487C6.33067 6.04293 6.33263 6.04098 6.33263 6.0371C6.35982 5.91718 6.39483 5.79725 6.43556 5.67927C6.43751 5.67344 6.43751 5.66761 6.43946 5.66386C6.07601 5.60972 5.71073 5.61361 5.34545 5.67551C5.3435 5.68523 5.3396 5.69481 5.33764 5.70452C5.30459 5.83416 5.27739 5.96561 5.2541 6.09524C5.2502 6.11454 5.24824 6.13397 5.24434 6.15326C5.223 6.28471 5.20738 6.41629 5.19776 6.54773C5.1958 6.56702 5.1958 6.58645 5.19385 6.60575C5.18604 6.7372 5.18214 6.86878 5.18409 7.00021C5.18409 7.01757 5.18604 7.03699 5.18604 7.05435C5.19008 7.18774 5.19984 7.31919 5.21337 7.45077L5.21336 7.45085Z" fill="#2A3548"/>
            <path d="M5.21336 7.45085C5.21531 7.46626 5.21727 7.48374 5.21922 7.49915C5.2347 7.63255 5.25618 7.76607 5.28533 7.89753C5.28728 7.91113 5.29118 7.9246 5.29509 7.9382C5.32423 8.07159 5.35924 8.20511 5.39997 8.3385C5.40387 8.34821 5.40778 8.3578 5.40973 8.36945C5.45254 8.50479 5.50108 8.63831 5.55547 8.76975C5.55743 8.77558 5.56133 8.78141 5.56328 8.78711C5.61963 8.92244 5.68378 9.05791 5.75366 9.18936C5.82367 9.32081 5.89941 9.44851 5.97905 9.57232C5.98295 9.57815 5.9849 9.58204 5.9888 9.58774C6.06649 9.70766 6.15004 9.82175 6.23943 9.9339C6.24529 9.94167 6.2531 9.95125 6.25882 9.95902C6.34432 10.0673 6.43567 10.1699 6.53093 10.2704C6.54069 10.2801 6.55032 10.2916 6.56008 10.3013C6.65338 10.398 6.75241 10.4908 6.85352 10.5797C6.86523 10.5914 6.87877 10.601 6.89048 10.6126C6.99159 10.6997 7.09647 10.7809 7.20331 10.8601C7.2188 10.8718 7.23246 10.8814 7.24794 10.893C7.35478 10.9684 7.46747 11.042 7.5803 11.1097C7.59773 11.1194 7.61335 11.129 7.63079 11.1387C7.74543 11.2045 7.86203 11.2664 7.98254 11.3225C7.99998 11.3302 8.01755 11.3398 8.03694 11.3476C8.15744 11.4037 8.28184 11.4539 8.40808 11.5004C8.41589 11.5043 8.42357 11.5062 8.43332 11.5101C8.47796 11.4638 8.52468 11.4173 8.56736 11.369C8.58102 11.3536 8.59651 11.338 8.60822 11.3226C8.67823 11.2395 8.74421 11.1524 8.80446 11.0635C8.81994 11.0422 8.8336 11.019 8.84727 10.9957C8.8919 10.9261 8.93667 10.8565 8.97558 10.7829C8.99106 10.7539 9.00863 10.7249 9.02412 10.694C9.03778 10.6689 9.04741 10.6437 9.06107 10.6167C9.05717 10.6147 9.05327 10.6147 9.04936 10.6128C8.92886 10.5779 8.81031 10.5393 8.69371 10.4948C8.69176 10.4948 8.68981 10.4928 8.6859 10.4928C8.57126 10.4484 8.46052 10.3961 8.3516 10.342C8.34184 10.3361 8.33026 10.3323 8.3205 10.3266C8.21757 10.2724 8.11646 10.2144 8.0173 10.1506C8.00363 10.1408 7.9901 10.1332 7.97448 10.1235C7.87923 10.0616 7.78788 9.99385 7.69848 9.92431C7.68481 9.91266 7.66933 9.90113 7.65566 9.88947C7.56821 9.81785 7.48272 9.74248 7.40308 9.66517C7.38942 9.65157 7.37783 9.64004 7.36417 9.62644C7.28258 9.54524 7.20476 9.4621 7.13293 9.37313C7.12317 9.36147 7.11354 9.348 7.10378 9.33635C7.03 9.24543 6.95803 9.15063 6.89193 9.05208C6.88607 9.04237 6.88022 9.03472 6.87449 9.02501C6.80643 8.92063 6.74046 8.81417 6.68216 8.70396C6.62386 8.59375 6.57142 8.47966 6.5247 8.3636C6.5208 8.35389 6.51689 8.34431 6.51299 8.33459C6.46289 8.22438 6.42411 8.11223 6.39105 8.00007C6.38715 7.98466 6.38129 7.96912 6.37739 7.95371C6.34629 7.8435 6.32104 7.73329 6.2997 7.62101C6.2958 7.60365 6.2919 7.58423 6.28994 7.56687C6.27055 7.45472 6.25494 7.34451 6.24713 7.23235C6.24518 7.215 6.24518 7.19557 6.24323 7.17822C6.23542 7.06606 6.23151 6.95197 6.23347 6.83786C6.23347 6.8205 6.23542 6.80496 6.23542 6.78761C6.23932 6.67157 6.24713 6.55553 6.26066 6.43949C6.26262 6.42784 6.26457 6.41631 6.26652 6.40466C6.282 6.28473 6.30348 6.16286 6.33067 6.04487C6.33067 6.04293 6.33263 6.04098 6.33263 6.0371C6.35982 5.91718 6.39483 5.79725 6.43556 5.67927C6.43751 5.67344 6.43751 5.66761 6.43946 5.66386C6.07601 5.60972 5.71073 5.61361 5.34545 5.67551C5.3435 5.68523 5.3396 5.69481 5.33764 5.70452C5.30459 5.83416 5.27739 5.96561 5.2541 6.09524C5.2502 6.11454 5.24824 6.13397 5.24434 6.15326C5.223 6.28471 5.20738 6.41629 5.19776 6.54773C5.1958 6.56702 5.1958 6.58645 5.19385 6.60575C5.18604 6.7372 5.18214 6.86878 5.18409 7.00021C5.18409 7.01757 5.18604 7.03699 5.18604 7.05435C5.19008 7.18774 5.19984 7.31919 5.21337 7.45077L5.21336 7.45085Z" fill="black" fill-opacity="0.2"/>
    </symbol>

    <symbol id="item-16" viewBox="0 0 16 16">
            <path d="M13.25 8C13.9404 8 14.5 7.44036 14.5 6.75C14.5 6.05964 13.9404 5.5 13.25 5.5C12.5596 5.5 12 6.05964 12 6.75C12 7.44036 12.5596 8 13.25 8Z" stroke="#2A3548" stroke-linecap="round" stroke-linejoin="round"/>
            <path d="M13.25 8C13.9404 8 14.5 7.44036 14.5 6.75C14.5 6.05964 13.9404 5.5 13.25 5.5C12.5596 5.5 12 6.05964 12 6.75C12 7.44036 12.5596 8 13.25 8Z" stroke="black" stroke-opacity="0.2" stroke-linecap="round" stroke-linejoin="round"/>
            <path d="M2.75 8C3.44036 8 4 7.44036 4 6.75C4 6.05964 3.44036 5.5 2.75 5.5C2.05964 5.5 1.5 6.05964 1.5 6.75C1.5 7.44036 2.05964 8 2.75 8Z" stroke="#2A3548" stroke-linecap="round" stroke-linejoin="round"/>
            <path d="M2.75 8C3.44036 8 4 7.44036 4 6.75C4 6.05964 3.44036 5.5 2.75 5.5C2.05964 5.5 1.5 6.05964 1.5 6.75C1.5 7.44036 2.05964 8 2.75 8Z" stroke="black" stroke-opacity="0.2" stroke-linecap="round" stroke-linejoin="round"/>
            <path d="M5.75 5C6.44036 5 7 4.44036 7 3.75C7 3.05964 6.44036 2.5 5.75 2.5C5.05964 2.5 4.5 3.05964 4.5 3.75C4.5 4.44036 5.05964 5 5.75 5Z" stroke="#2A3548" stroke-linecap="round" stroke-linejoin="round"/>
            <path d="M5.75 5C6.44036 5 7 4.44036 7 3.75C7 3.05964 6.44036 2.5 5.75 2.5C5.05964 2.5 4.5 3.05964 4.5 3.75C4.5 4.44036 5.05964 5 5.75 5Z" stroke="black" stroke-opacity="0.2" stroke-linecap="round" stroke-linejoin="round"/>
            <path d="M10.25 5C10.9404 5 11.5 4.44036 11.5 3.75C11.5 3.05964 10.9404 2.5 10.25 2.5C9.55964 2.5 9 3.05964 9 3.75C9 4.44036 9.55964 5 10.25 5Z" stroke="#2A3548" stroke-linecap="round" stroke-linejoin="round"/>
            <path d="M10.25 5C10.9404 5 11.5 4.44036 11.5 3.75C11.5 3.05964 10.9404 2.5 10.25 2.5C9.55964 2.5 9 3.05964 9 3.75C9 4.44036 9.55964 5 10.25 5Z" stroke="black" stroke-opacity="0.2" stroke-linecap="round" stroke-linejoin="round"/>
            <path d="M11.4521 9.74084C10.825 9.39253 10.3607 8.81067 10.1604 8.12186L10.1603 8.12192C10.0244 7.65411 9.74023 7.24308 9.35063 6.9506C8.96103 6.65812 8.48703 6.5 7.99986 6.5C7.51269 6.5 7.03869 6.65812 6.64909 6.9506C6.25949 7.24308 5.97535 7.65411 5.83937 8.12192L5.83931 8.12186C5.63897 8.81067 5.17475 9.39253 4.54763 9.74084C4.09588 9.98572 3.75569 10.395 3.59757 10.8839C3.43944 11.3728 3.47551 11.9039 3.6983 12.3669C3.92109 12.8299 4.31351 13.1895 4.79421 13.371C5.27492 13.5525 5.80705 13.5421 6.28029 13.3419C7.38215 12.8901 8.61757 12.8901 9.71943 13.3419C10.1927 13.5424 10.725 13.5529 11.2058 13.3714C11.6867 13.1899 12.0792 12.8303 12.3021 12.3672C12.5249 11.9041 12.5609 11.3729 12.4027 10.8839C12.2444 10.3949 11.904 9.98561 11.4521 9.74084H11.4521Z" stroke="#2A3548" stroke-linecap="round" stroke-linejoin="round"/>
            <path d="M11.4521 9.74084C10.825 9.39253 10.3607 8.81067 10.1604 8.12186L10.1603 8.12192C10.0244 7.65411 9.74023 7.24308 9.35063 6.9506C8.96103 6.65812 8.48703 6.5 7.99986 6.5C7.51269 6.5 7.03869 6.65812 6.64909 6.9506C6.25949 7.24308 5.97535 7.65411 5.83937 8.12192L5.83931 8.12186C5.63897 8.81067 5.17475 9.39253 4.54763 9.74084C4.09588 9.98572 3.75569 10.395 3.59757 10.8839C3.43944 11.3728 3.47551 11.9039 3.6983 12.3669C3.92109 12.8299 4.31351 13.1895 4.79421 13.371C5.27492 13.5525 5.80705 13.5421 6.28029 13.3419C7.38215 12.8901 8.61757 12.8901 9.71943 13.3419C10.1927 13.5424 10.725 13.5529 11.2058 13.3714C11.6867 13.1899 12.0792 12.8303 12.3021 12.3672C12.5249 11.9041 12.5609 11.3729 12.4027 10.8839C12.2444 10.3949 11.904 9.98561 11.4521 9.74084H11.4521Z" stroke="black" stroke-opacity="0.2" stroke-linecap="round" stroke-linejoin="round"/>
    </symbol>

    <symbol id="item-17" viewBox="0 0 16 16">
            <path fill-rule="evenodd" clip-rule="evenodd" d="M3 3H6.45455L6.45455 6.45455L3 6.45455V3ZM2 3C2 2.44772 2.44772 2 3 2H6.45455C7.00683 2 7.45455 2.44772 7.45455 3V6.45455C7.45455 7.00683 7.00683 7.45455 6.45455 7.45455H3C2.44772 7.45455 2 7.00683 2 6.45455V3ZM9.54545 3H13V6.45455L9.54545 6.45455V3ZM8.54545 3C8.54545 2.44772 8.99317 2 9.54545 2H13C13.5523 2 14 2.44772 14 3V6.45455C14 7.00683 13.5523 7.45455 13 7.45455H9.54545C8.99317 7.45455 8.54545 7.00683 8.54545 6.45455V3ZM13 9.5459H9.54547V13.0004L13 13.0004L13 9.5459ZM9.54547 8.5459C8.99319 8.5459 8.54547 8.99361 8.54547 9.5459V13.0004C8.54547 13.5527 8.99319 14.0004 9.54547 14.0004H13C13.5523 14.0004 14 13.5527 14 13.0004V9.5459C14 8.99361 13.5523 8.5459 13 8.5459H9.54547ZM3 9.5459H6.45455L6.45455 13.0004L3 13.0004V9.5459ZM2 9.5459C2 8.99361 2.44772 8.5459 3 8.5459H6.45455C7.00683 8.5459 7.45455 8.99361 7.45455 9.5459V13.0004C7.45455 13.5527 7.00683 14.0004 6.45455 14.0004H3C2.44772 14.0004 2 13.5527 2 13.0004V9.5459Z" fill="#2A3548"/>
            <path fill-rule="evenodd" clip-rule="evenodd" d="M3 3H6.45455L6.45455 6.45455L3 6.45455V3ZM2 3C2 2.44772 2.44772 2 3 2H6.45455C7.00683 2 7.45455 2.44772 7.45455 3V6.45455C7.45455 7.00683 7.00683 7.45455 6.45455 7.45455H3C2.44772 7.45455 2 7.00683 2 6.45455V3ZM9.54545 3H13V6.45455L9.54545 6.45455V3ZM8.54545 3C8.54545 2.44772 8.99317 2 9.54545 2H13C13.5523 2 14 2.44772 14 3V6.45455C14 7.00683 13.5523 7.45455 13 7.45455H9.54545C8.99317 7.45455 8.54545 7.00683 8.54545 6.45455V3ZM13 9.5459H9.54547V13.0004L13 13.0004L13 9.5459ZM9.54547 8.5459C8.99319 8.5459 8.54547 8.99361 8.54547 9.5459V13.0004C8.54547 13.5527 8.99319 14.0004 9.54547 14.0004H13C13.5523 14.0004 14 13.5527 14 13.0004V9.5459C14 8.99361 13.5523 8.5459 13 8.5459H9.54547ZM3 9.5459H6.45455L6.45455 13.0004L3 13.0004V9.5459ZM2 9.5459C2 8.99361 2.44772 8.5459 3 8.5459H6.45455C7.00683 8.5459 7.45455 8.99361 7.45455 9.5459V13.0004C7.45455 13.5527 7.00683 14.0004 6.45455 14.0004H3C2.44772 14.0004 2 13.5527 2 13.0004V9.5459Z" fill="black" fill-opacity="0.2"/>
    </symbol>

</svg>

