<svg display="none" xmlns="http://www.w3.org/2000/svg">
    <symbol id="search" viewBox="0 0 16 16">
        <path d="M15.7372 14.4753L12.7159 11.463C13.6907 10.2211 14.2196 8.68756 14.2176 7.10882C14.2176 5.70283 13.8007 4.32841 13.0196 3.15937C12.2385 1.99033 11.1282 1.07918 9.82925 0.54113C8.53028 0.00308012 7.10094 -0.137698 5.72196 0.136597C4.34299 0.410893 3.07631 1.08794 2.08213 2.08213C1.08794 3.07631 0.410893 4.34299 0.136597 5.72196C-0.137698 7.10094 0.00308012 8.53028 0.54113 9.82925C1.07918 11.1282 1.99033 12.2385 3.15937 13.0196C4.32841 13.8007 5.70283 14.2176 7.10882 14.2176C8.68756 14.2196 10.2211 13.6907 11.463 12.7159L14.4753 15.7372C14.5579 15.8204 14.6562 15.8865 14.7645 15.9317C14.8728 15.9768 14.9889 16 15.1062 16C15.2236 16 15.3397 15.9768 15.448 15.9317C15.5563 15.8865 15.6545 15.8204 15.7372 15.7372C15.8204 15.6545 15.8865 15.5563 15.9317 15.448C15.9768 15.3397 16 15.2236 16 15.1062C16 14.9889 15.9768 14.8728 15.9317 14.7645C15.8865 14.6562 15.8204 14.5579 15.7372 14.4753ZM1.77721 7.10882C1.77721 6.05433 2.0899 5.02352 2.67575 4.14674C3.26159 3.26996 4.09428 2.58659 5.0685 2.18305C6.04273 1.77952 7.11474 1.67393 8.14897 1.87965C9.1832 2.08538 10.1332 2.59316 10.8788 3.3388C11.6245 4.08444 12.1323 5.03444 12.338 6.06868C12.5437 7.10291 12.4381 8.17492 12.0346 9.14914C11.6311 10.1234 10.9477 10.9561 10.0709 11.5419C9.19413 12.1277 8.16332 12.4404 7.10882 12.4404C5.69479 12.4404 4.33867 11.8787 3.3388 10.8788C2.33893 9.87897 1.77721 8.52285 1.77721 7.10882Z"
              fill="#858585"/>
    </symbol>

    <symbol id="plus" viewBox="0 0 11 12">
        <path d="M5.5 0.5C4.99374 0.5 4.5834 0.910337 4.5834 1.4166V5.0834H0.916598C0.410337 5.0834 0 5.49374 0 6C0 6.50626 0.410337 6.9166 0.916598 6.9166H4.5834V10.5834C4.5834 11.0897 4.99374 11.5 5.5 11.5C6.00626 11.5 6.4166 11.0897 6.4166 10.5834V6.9166H10.0834C10.5897 6.9166 11 6.50626 11 6C11 5.49374 10.5897 5.0834 10.0834 5.0834H6.4166V1.4166C6.4166 0.910337 6.00626 0.5 5.5 0.5Z"/>
    </symbol>

    <symbol id="search-white" viewBox="0 0 16 16">
        <path d="M15.7372 14.4753L12.7159 11.463C13.6907 10.2211 14.2196 8.68756 14.2176 7.10882C14.2176 5.70283 13.8007 4.32841 13.0196 3.15937C12.2385 1.99033 11.1282 1.07918 9.82925 0.54113C8.53028 0.00308012 7.10094 -0.137698 5.72196 0.136597C4.34299 0.410893 3.07631 1.08794 2.08213 2.08213C1.08794 3.07631 0.410893 4.34299 0.136597 5.72196C-0.137698 7.10094 0.00308012 8.53028 0.54113 9.82925C1.07918 11.1282 1.99033 12.2385 3.15937 13.0196C4.32841 13.8007 5.70283 14.2176 7.10882 14.2176C8.68756 14.2196 10.2211 13.6907 11.463 12.7159L14.4753 15.7372C14.5579 15.8204 14.6562 15.8865 14.7645 15.9317C14.8728 15.9768 14.9889 16 15.1062 16C15.2236 16 15.3397 15.9768 15.448 15.9317C15.5563 15.8865 15.6545 15.8204 15.7372 15.7372C15.8204 15.6545 15.8865 15.5563 15.9317 15.448C15.9768 15.3397 16 15.2236 16 15.1062C16 14.9889 15.9768 14.8728 15.9317 14.7645C15.8865 14.6562 15.8204 14.5579 15.7372 14.4753V14.4753ZM1.77721 7.10882C1.77721 6.05433 2.0899 5.02352 2.67575 4.14674C3.26159 3.26996 4.09428 2.58659 5.0685 2.18305C6.04273 1.77952 7.11474 1.67393 8.14897 1.87965C9.1832 2.08538 10.1332 2.59316 10.8788 3.3388C11.6245 4.08444 12.1323 5.03444 12.338 6.06868C12.5437 7.10291 12.4381 8.17492 12.0346 9.14914C11.6311 10.1234 10.9477 10.9561 10.0709 11.5419C9.19413 12.1277 8.16332 12.4404 7.10882 12.4404C5.69479 12.4404 4.33867 11.8787 3.3388 10.8788C2.33893 9.87897 1.77721 8.52285 1.77721 7.10882Z"
              fill="white"/>
    </symbol>

    <symbol id="arrow-prev" viewBox="0 0 6 10">
        <path d="M0.6375 5.45003C0.549567 5.36221 0.500109 5.24306 0.5 5.11878V4.88128C0.50144 4.75727 0.550698 4.63861 0.6375 4.55003L3.85 1.34378C3.90868 1.28462 3.98855 1.25134 4.07188 1.25134C4.1552 1.25134 4.23507 1.28462 4.29375 1.34378L4.7375 1.78753C4.79629 1.84513 4.82942 1.92397 4.82942 2.00628C4.82942 2.08859 4.79629 2.16743 4.7375 2.22503L1.95625 5.00003L4.7375 7.77503C4.79666 7.83371 4.82994 7.91358 4.82994 7.9969C4.82994 8.08023 4.79666 8.1601 4.7375 8.21878L4.29375 8.65628C4.23507 8.71544 4.1552 8.74872 4.07188 8.74872C3.98855 8.74872 3.90868 8.71544 3.85 8.65628L0.6375 5.45003Z"/>
        <path d="M0.6375 5.45003C0.549567 5.36221 0.500109 5.24306 0.5 5.11878V4.88128C0.50144 4.75727 0.550698 4.63861 0.6375 4.55003L3.85 1.34378C3.90868 1.28462 3.98855 1.25134 4.07188 1.25134C4.1552 1.25134 4.23507 1.28462 4.29375 1.34378L4.7375 1.78753C4.79629 1.84513 4.82942 1.92397 4.82942 2.00628C4.82942 2.08859 4.79629 2.16743 4.7375 2.22503L1.95625 5.00003L4.7375 7.77503C4.79666 7.83371 4.82994 7.91358 4.82994 7.9969C4.82994 8.08023 4.79666 8.1601 4.7375 8.21878L4.29375 8.65628C4.23507 8.71544 4.1552 8.74872 4.07188 8.74872C3.98855 8.74872 3.90868 8.71544 3.85 8.65628L0.6375 5.45003Z"
              fill-opacity="0.2"/>
        <path d="M0.6375 5.45003C0.549567 5.36221 0.500109 5.24306 0.5 5.11878V4.88128C0.50144 4.75727 0.550698 4.63861 0.6375 4.55003L3.85 1.34378C3.90868 1.28462 3.98855 1.25134 4.07188 1.25134C4.1552 1.25134 4.23507 1.28462 4.29375 1.34378L4.7375 1.78753C4.79629 1.84513 4.82942 1.92397 4.82942 2.00628C4.82942 2.08859 4.79629 2.16743 4.7375 2.22503L1.95625 5.00003L4.7375 7.77503C4.79666 7.83371 4.82994 7.91358 4.82994 7.9969C4.82994 8.08023 4.79666 8.1601 4.7375 8.21878L4.29375 8.65628C4.23507 8.71544 4.1552 8.74872 4.07188 8.74872C3.98855 8.74872 3.90868 8.71544 3.85 8.65628L0.6375 5.45003Z"/>
    </symbol>

    <symbol id="arrow-next" viewBox="0 0 6 10">
        <path d="M5.3625 5.45003C5.45043 5.36221 5.49989 5.24306 5.5 5.11878V4.88128C5.49856 4.75727 5.4493 4.63861 5.3625 4.55003L2.15 1.34378C2.09132 1.28462 2.01145 1.25134 1.92812 1.25134C1.8448 1.25134 1.76493 1.28462 1.70625 1.34378L1.2625 1.78753C1.20371 1.84513 1.17058 1.92397 1.17058 2.00628C1.17058 2.08859 1.20371 2.16743 1.2625 2.22503L4.04375 5.00003L1.2625 7.77503C1.20334 7.83371 1.17006 7.91358 1.17006 7.9969C1.17006 8.08023 1.20334 8.1601 1.2625 8.21878L1.70625 8.65628C1.76493 8.71544 1.8448 8.74872 1.92812 8.74872C2.01145 8.74872 2.09132 8.71544 2.15 8.65628L5.3625 5.45003Z"/>
    </symbol>

    <symbol id="location" viewBox="0 0 13 18">
        <path d="M6.5 0C2.91027 0 0 2.83297 0 6.32737C0 9.11352 4.1327 15.2334 5.80753 17.5998C6.1854 18.1334 6.8146 18.1334 7.19247 17.5998C8.8673 15.2329 13 9.11395 13 6.32737C13 2.83297 10.0897 0 6.5 0ZM6.5 2.95277C7.41942 2.95277 8.30118 3.30831 8.9513 3.94117C9.60143 4.57403 9.96667 5.43237 9.96667 6.32737C9.96667 6.77053 9.877 7.20935 9.70278 7.61877C9.52857 8.0282 9.27321 8.40021 8.9513 8.71357C8.62939 9.02693 8.24723 9.2755 7.82664 9.44509C7.40604 9.61468 6.95525 9.70197 6.5 9.70197C5.58058 9.70197 4.69882 9.34643 4.0487 8.71357C3.39857 8.08071 3.03333 7.22237 3.03333 6.32737C3.03333 5.43237 3.39857 4.57403 4.0487 3.94117C4.69882 3.30831 5.58058 2.95277 6.5 2.95277Z"
              fill="#2A3548"/>
    </symbol>

    <symbol id="instagram" viewBox="0 0 18 18">
        <path d="M6.08662 8.99996C6.08662 7.39154 7.39093 6.08731 9.00032 6.08731C10.6097 6.08731 11.9147 7.39154 11.9147 8.99996C11.9147 10.6084 10.6097 11.9126 9.00032 11.9126C7.39093 11.9126 6.08662 10.6084 6.08662 8.99996ZM4.51115 8.99996C4.51115 11.4779 6.52095 13.4864 9.00032 13.4864C11.4797 13.4864 13.4895 11.4779 13.4895 8.99996C13.4895 6.52207 11.4797 4.51348 9.00032 4.51348C6.52095 4.51348 4.51115 6.52207 4.51115 8.99996ZM12.6181 4.33559C12.618 4.54296 12.6795 4.74569 12.7947 4.91816C12.9099 5.09063 13.0737 5.22508 13.2654 5.30451C13.457 5.38394 13.668 5.40479 13.8715 5.36442C14.075 5.32404 14.262 5.22426 14.4087 5.07769C14.5555 4.93111 14.6555 4.74433 14.6961 4.54097C14.7366 4.3376 14.7159 4.12678 14.6366 3.93516C14.5573 3.74355 14.4229 3.57975 14.2504 3.46447C14.0779 3.34919 13.8751 3.28762 13.6676 3.28754H13.6672C13.3891 3.28767 13.1224 3.39811 12.9257 3.59462C12.729 3.79113 12.6184 4.05763 12.6181 4.33559V4.33559ZM5.46835 16.1119C4.61599 16.0731 4.15271 15.9312 3.84483 15.8113C3.43666 15.6525 3.14543 15.4634 2.83923 15.1578C2.53303 14.8522 2.3435 14.5614 2.18529 14.1535C2.06527 13.8459 1.9233 13.3828 1.88455 12.5309C1.84217 11.61 1.8337 11.3333 1.8337 9.00003C1.8337 6.66676 1.84286 6.39087 1.88455 5.46913C1.92337 4.61728 2.06639 4.15504 2.18529 3.84658C2.3442 3.43866 2.53345 3.1476 2.83923 2.84159C3.14501 2.53557 3.43596 2.34615 3.84483 2.18804C4.15257 2.06809 4.61599 1.9262 5.46835 1.88748C6.38988 1.84512 6.6667 1.83666 9.00032 1.83666C11.3339 1.83666 11.611 1.84582 12.5333 1.88748C13.3857 1.92627 13.8482 2.06921 14.1569 2.18804C14.565 2.34615 14.8563 2.53599 15.1625 2.84159C15.4687 3.14718 15.6575 3.43866 15.8164 3.84658C15.9364 4.15413 16.0784 4.61728 16.1171 5.46913C16.1595 6.39087 16.168 6.66676 16.168 9.00003C16.168 11.3333 16.1595 11.6092 16.1171 12.5309C16.0783 13.3828 15.9357 13.8458 15.8164 14.1535C15.6575 14.5614 15.4682 14.8525 15.1625 15.1578C14.8567 15.4631 14.565 15.6525 14.1569 15.8113C13.8491 15.9313 13.3857 16.0732 12.5333 16.1119C11.6118 16.1542 11.335 16.1627 9.00032 16.1627C6.66565 16.1627 6.3896 16.1542 5.46835 16.1119V16.1119ZM5.39596 0.315608C4.46527 0.357966 3.8293 0.505452 3.27391 0.721437C2.69872 0.944482 2.2118 1.24372 1.72523 1.72923C1.23865 2.21474 0.940008 2.70214 0.716829 3.27698C0.500714 3.83239 0.353141 4.46763 0.310757 5.39776C0.267674 6.32936 0.257812 6.6272 0.257812 8.99996C0.257812 11.3727 0.267674 11.6706 0.310757 12.6022C0.353141 13.5324 0.500714 14.1675 0.716829 14.7229C0.940008 15.2974 1.23872 15.7854 1.72523 16.2707C2.21173 16.756 2.69872 17.0548 3.27391 17.2785C3.83035 17.4945 4.46527 17.642 5.39596 17.6843C6.32861 17.7267 6.62614 17.7372 9.00032 17.7372C11.3745 17.7372 11.6725 17.7274 12.6047 17.6843C13.5354 17.642 14.171 17.4945 14.7267 17.2785C15.3016 17.0548 15.7888 16.7562 16.2754 16.2707C16.762 15.7852 17.06 15.2974 17.2838 14.7229C17.4999 14.1675 17.6482 13.5323 17.6899 12.6022C17.7323 11.6699 17.7421 11.3727 17.7421 8.99996C17.7421 6.6272 17.7323 6.32936 17.6899 5.39776C17.6475 4.46756 17.4999 3.83204 17.2838 3.27698C17.06 2.70249 16.7612 2.21551 16.2754 1.72923C15.7896 1.24295 15.3016 0.944482 14.7274 0.721437C14.171 0.505452 13.5354 0.357267 12.6054 0.315608C11.6732 0.27325 11.3752 0.262695 9.00102 0.262695C6.62684 0.262695 6.32861 0.272551 5.39596 0.315608Z"
              fill="url(#paint0_radial_502_434)"/>
        <path d="M6.08662 8.99996C6.08662 7.39154 7.39093 6.08731 9.00032 6.08731C10.6097 6.08731 11.9147 7.39154 11.9147 8.99996C11.9147 10.6084 10.6097 11.9126 9.00032 11.9126C7.39093 11.9126 6.08662 10.6084 6.08662 8.99996ZM4.51115 8.99996C4.51115 11.4779 6.52095 13.4864 9.00032 13.4864C11.4797 13.4864 13.4895 11.4779 13.4895 8.99996C13.4895 6.52207 11.4797 4.51348 9.00032 4.51348C6.52095 4.51348 4.51115 6.52207 4.51115 8.99996ZM12.6181 4.33559C12.618 4.54296 12.6795 4.74569 12.7947 4.91816C12.9099 5.09063 13.0737 5.22508 13.2654 5.30451C13.457 5.38394 13.668 5.40479 13.8715 5.36442C14.075 5.32404 14.262 5.22426 14.4087 5.07769C14.5555 4.93111 14.6555 4.74433 14.6961 4.54097C14.7366 4.3376 14.7159 4.12678 14.6366 3.93516C14.5573 3.74355 14.4229 3.57975 14.2504 3.46447C14.0779 3.34919 13.8751 3.28762 13.6676 3.28754H13.6672C13.3891 3.28767 13.1224 3.39811 12.9257 3.59462C12.729 3.79113 12.6184 4.05763 12.6181 4.33559V4.33559ZM5.46835 16.1119C4.61599 16.0731 4.15271 15.9312 3.84483 15.8113C3.43666 15.6525 3.14543 15.4634 2.83923 15.1578C2.53303 14.8522 2.3435 14.5614 2.18529 14.1535C2.06527 13.8459 1.9233 13.3828 1.88455 12.5309C1.84217 11.61 1.8337 11.3333 1.8337 9.00003C1.8337 6.66676 1.84286 6.39087 1.88455 5.46913C1.92337 4.61728 2.06639 4.15504 2.18529 3.84658C2.3442 3.43866 2.53345 3.1476 2.83923 2.84159C3.14501 2.53557 3.43596 2.34615 3.84483 2.18804C4.15257 2.06809 4.61599 1.9262 5.46835 1.88748C6.38988 1.84512 6.6667 1.83666 9.00032 1.83666C11.3339 1.83666 11.611 1.84582 12.5333 1.88748C13.3857 1.92627 13.8482 2.06921 14.1569 2.18804C14.565 2.34615 14.8563 2.53599 15.1625 2.84159C15.4687 3.14718 15.6575 3.43866 15.8164 3.84658C15.9364 4.15413 16.0784 4.61728 16.1171 5.46913C16.1595 6.39087 16.168 6.66676 16.168 9.00003C16.168 11.3333 16.1595 11.6092 16.1171 12.5309C16.0783 13.3828 15.9357 13.8458 15.8164 14.1535C15.6575 14.5614 15.4682 14.8525 15.1625 15.1578C14.8567 15.4631 14.565 15.6525 14.1569 15.8113C13.8491 15.9313 13.3857 16.0732 12.5333 16.1119C11.6118 16.1542 11.335 16.1627 9.00032 16.1627C6.66565 16.1627 6.3896 16.1542 5.46835 16.1119V16.1119ZM5.39596 0.315608C4.46527 0.357966 3.8293 0.505452 3.27391 0.721437C2.69872 0.944482 2.2118 1.24372 1.72523 1.72923C1.23865 2.21474 0.940008 2.70214 0.716829 3.27698C0.500714 3.83239 0.353141 4.46763 0.310757 5.39776C0.267674 6.32936 0.257812 6.6272 0.257812 8.99996C0.257812 11.3727 0.267674 11.6706 0.310757 12.6022C0.353141 13.5324 0.500714 14.1675 0.716829 14.7229C0.940008 15.2974 1.23872 15.7854 1.72523 16.2707C2.21173 16.756 2.69872 17.0548 3.27391 17.2785C3.83035 17.4945 4.46527 17.642 5.39596 17.6843C6.32861 17.7267 6.62614 17.7372 9.00032 17.7372C11.3745 17.7372 11.6725 17.7274 12.6047 17.6843C13.5354 17.642 14.171 17.4945 14.7267 17.2785C15.3016 17.0548 15.7888 16.7562 16.2754 16.2707C16.762 15.7852 17.06 15.2974 17.2838 14.7229C17.4999 14.1675 17.6482 13.5323 17.6899 12.6022C17.7323 11.6699 17.7421 11.3727 17.7421 8.99996C17.7421 6.6272 17.7323 6.32936 17.6899 5.39776C17.6475 4.46756 17.4999 3.83204 17.2838 3.27698C17.06 2.70249 16.7612 2.21551 16.2754 1.72923C15.7896 1.24295 15.3016 0.944482 14.7274 0.721437C14.171 0.505452 13.5354 0.357267 12.6054 0.315608C11.6732 0.27325 11.3752 0.262695 9.00102 0.262695C6.62684 0.262695 6.32861 0.272551 5.39596 0.315608Z"
              fill="url(#paint1_radial_502_434)"/>
        <defs>
            <radialGradient id="paint0_radial_502_434" cx="0" cy="0" r="1" gradientUnits="userSpaceOnUse"
                            gradientTransform="translate(2.5808 17.8198) scale(22.8252 22.8115)">
                <stop offset="0.09" stop-color="#FA8F21"/>
                <stop offset="0.78" stop-color="#D82D7E"/>
            </radialGradient>
            <radialGradient id="paint1_radial_502_434" cx="0" cy="0" r="1" gradientUnits="userSpaceOnUse"
                            gradientTransform="translate(10.8617 18.6026) scale(17.9894 17.9786)">
                <stop offset="0.64" stop-color="#8C3AAA" stop-opacity="0"/>
                <stop offset="1" stop-color="#8C3AAA"/>
            </radialGradient>
        </defs>
    </symbol>

    <symbol id="facebook" viewBox="0 0 10 16">
        <path d="M8.74358 8.99931L9.19952 6.10502H6.39095V4.22373C6.39095 3.43233 6.78306 2.65901 8.03688 2.65901H9.33174V0.194338C8.57768 0.0741985 7.81573 0.00920332 7.05206 -0.00012207C4.74046 -0.00012207 3.23131 1.38823 3.23131 3.89813V6.10502H0.668945V8.99931H3.23131V15.9999H6.39095V8.99931H8.74358Z"
              fill="#337FFF"/>
    </symbol>

    <symbol id="vk" viewBox="0 0 20 12">
        <path fill-rule="evenodd" clip-rule="evenodd"
              d="M19.3374 1.16803C19.4727 0.745379 19.3374 0.434814 18.6938 0.434814H16.5656C16.0244 0.434814 15.775 0.703096 15.6397 0.998934C15.6397 0.998934 14.5574 3.4714 13.0242 5.07743C12.5281 5.54232 12.3026 5.69024 12.0321 5.69024C11.8968 5.69024 11.701 5.54232 11.701 5.11971V1.16803C11.701 0.66085 11.5439 0.434814 11.0929 0.434814H7.74855C7.41039 0.434814 7.20701 0.670208 7.20701 0.893298C7.20701 1.37409 7.97357 1.48497 8.05259 2.83744V5.7748C8.05259 6.41881 7.9285 6.53557 7.65793 6.53557C6.93644 6.53557 5.18142 4.05206 4.14053 1.21027C3.93654 0.657932 3.73194 0.434814 3.18802 0.434814H1.05977C0.451699 0.434814 0.330078 0.703096 0.330078 0.998934C0.330078 1.52725 1.0516 4.14764 3.68961 7.61328C5.44827 9.98004 7.92611 11.263 10.1808 11.263C11.5337 11.263 11.701 10.978 11.701 10.4872V8.69843C11.701 8.12852 11.8292 8.01478 12.2576 8.01478C12.5732 8.01478 13.1144 8.1627 14.377 9.30383C15.82 10.6563 16.0579 11.263 16.8696 11.263H18.9979C19.6059 11.263 19.91 10.978 19.7346 10.4157C19.5427 9.85525 18.8537 9.0421 17.9395 8.07817C17.4434 7.52875 16.6994 6.93708 16.4739 6.64117C16.1583 6.26084 16.2484 6.09175 16.4739 5.75366C16.4739 5.75366 19.0669 2.33027 19.3374 1.16803Z"
              fill="#2787F5"/>
    </symbol>

    <symbol id="tik-tok" viewBox="0 0 16 18">
        <path fill-rule="evenodd" clip-rule="evenodd"
              d="M11.4136 6.77996C12.4854 7.54186 13.7688 7.94893 15.0838 7.944V5.33794C14.8253 5.33865 14.5675 5.31098 14.315 5.25541V7.33157C12.9971 7.33391 11.7117 6.92217 10.6405 6.1545V11.5143C10.6372 12.3938 10.3961 13.256 9.94249 14.0095C9.48893 14.7631 8.8399 15.3798 8.06423 15.7944C7.28856 16.2089 6.41515 16.4058 5.53664 16.3642C4.65812 16.3226 3.80724 16.044 3.07422 15.558C3.75225 16.2441 4.6186 16.7134 5.56357 16.9068C6.50854 17.1001 7.48963 17.0086 8.3826 16.644C9.27557 16.2794 10.0402 15.658 10.5798 14.8585C11.1194 14.059 11.4096 13.1173 11.4136 12.1528V6.77996ZM12.3648 4.12177C11.8198 3.53103 11.4854 2.77666 11.4136 1.97612V1.63733H10.6839C10.7741 2.1462 10.9704 2.63038 11.26 3.05842C11.5496 3.48646 11.926 3.84876 12.3648 4.12177ZM4.76381 13.4949C4.5109 13.1642 4.35591 12.7691 4.31648 12.3546C4.27705 11.9402 4.35477 11.5229 4.54078 11.1505C4.7268 10.778 5.01364 10.4652 5.36866 10.2477C5.72369 10.0302 6.13264 9.91677 6.54897 9.92026C6.77882 9.92019 7.00733 9.95535 7.22654 10.0245V7.33157C6.97029 7.29764 6.71185 7.28312 6.45341 7.28814V9.38167C5.91965 9.21295 5.34195 9.25132 4.83519 9.48914C4.32843 9.72697 3.92976 10.1468 3.71847 10.6652C3.50717 11.1836 3.49874 11.7625 3.69485 12.2868C3.89095 12.8111 4.27723 13.2424 4.77684 13.4949H4.76381Z"
              fill="#EE1D52"/>
        <path fill-rule="evenodd" clip-rule="evenodd"
              d="M10.6407 6.13713C11.712 6.90479 12.9973 7.31653 14.3153 7.3142V5.23804C13.5644 5.07927 12.8823 4.68884 12.3651 4.12177C11.9263 3.84876 11.5498 3.48646 11.2602 3.05842C10.9706 2.63038 10.7744 2.1462 10.6842 1.63733H8.76436V12.1528C8.76257 12.6182 8.61507 13.0714 8.34256 13.4488C8.07005 13.8261 7.68621 14.1086 7.24493 14.2567C6.80366 14.4047 6.32709 14.4109 5.88214 14.2743C5.4372 14.1376 5.0462 13.8651 4.76406 13.4949C4.31691 13.2693 3.95882 12.8996 3.74755 12.4455C3.53629 11.9914 3.48417 11.4794 3.59961 10.992C3.71505 10.5047 3.99131 10.0704 4.38382 9.75935C4.77634 9.44827 5.26221 9.2785 5.76305 9.27743C5.99284 9.27816 6.22123 9.3133 6.44062 9.38167V7.28814C5.49271 7.31089 4.57206 7.60993 3.7917 8.14853C3.01134 8.68714 2.40522 9.44188 2.04775 10.3201C1.69028 11.1983 1.59702 12.1618 1.7794 13.0923C1.96179 14.0228 2.41189 14.8798 3.07446 15.558C3.80763 16.0475 4.65985 16.329 5.54034 16.3724C6.42083 16.4158 7.29662 16.2196 8.0744 15.8047C8.85219 15.3897 9.50285 14.7715 9.95707 14.016C10.4113 13.2605 10.6521 12.3959 10.6538 11.5143L10.6407 6.13713Z"
              fill="#2A3548"/>
        <path fill-rule="evenodd" clip-rule="evenodd"
              d="M14.3151 5.2378V4.6775C13.6255 4.68043 12.9492 4.48764 12.3649 4.12154C12.8807 4.69023 13.5634 5.08099 14.3151 5.2378ZM10.684 1.63709C10.684 1.53719 10.6536 1.43295 10.6405 1.33305V0.994263H7.99103V11.5141C7.98873 12.1031 7.75282 12.6672 7.33508 13.0825C6.91734 13.4978 6.3519 13.7304 5.76285 13.7292C5.41601 13.731 5.07368 13.6506 4.76386 13.4947C5.04601 13.8649 5.437 14.1374 5.88194 14.274C6.32689 14.4106 6.80346 14.4045 7.24474 14.2565C7.68601 14.1084 8.06985 13.8259 8.34236 13.4485C8.61487 13.0712 8.76237 12.618 8.76416 12.1525V1.63709H10.684ZM6.44042 7.28356V6.68851C5.35017 6.5404 4.2419 6.76592 3.29623 7.32832C2.35056 7.89072 1.62325 8.75683 1.23284 9.7855C0.842433 10.8142 0.811939 11.9447 1.14633 12.993C1.48072 14.0412 2.16028 14.9452 3.07426 15.5578C2.41671 14.878 1.9714 14.0213 1.79274 13.0925C1.61407 12.1637 1.70979 11.203 2.06819 10.3277C2.4266 9.45245 3.03217 8.70051 3.81093 8.16376C4.5897 7.62701 5.50793 7.3287 6.45345 7.30527L6.44042 7.28356Z"
              fill="#69C9D0"/>
    </symbol>

    <symbol id="youtube" viewBox="0 0 19 14">
        <path d="M18.1221 2.59864C17.9197 1.81319 17.3209 1.19355 16.5592 0.981189C15.1818 0.600098 9.65531 0.600098 9.65531 0.600098C9.65531 0.600098 4.13168 0.600098 2.75148 0.981189C1.9925 1.19064 1.39376 1.81028 1.18855 2.59864C0.820312 4.0241 0.820312 7.0001 0.820312 7.0001C0.820312 7.0001 0.820312 9.9761 1.18855 11.4016C1.39095 12.187 1.98969 12.8066 2.75148 13.019C4.13168 13.4001 9.65531 13.4001 9.65531 13.4001C9.65531 13.4001 15.1818 13.4001 16.5592 13.019C17.3181 12.8096 17.9169 12.1899 18.1221 11.4016C18.4903 9.9761 18.4903 7.0001 18.4903 7.0001C18.4903 7.0001 18.4903 4.0241 18.1221 2.59864Z"
              fill="#FF3000"/>
        <path d="M7.89 9.74337L12.4804 7.0001L7.89 4.25683V9.74337Z" fill="white"/>
    </symbol>

    <symbol id="twitter" viewBox="0 0 17 14">
        <path d="M16.8467 1.88517C16.3019 2.11257 15.729 2.27091 15.1424 2.35629C15.4167 2.3107 15.8202 1.83198 15.9809 1.63822C16.2249 1.34595 16.4109 1.01229 16.5294 0.654203C16.5294 0.627608 16.5568 0.589615 16.5294 0.570619C16.5156 0.563303 16.5001 0.559469 16.4843 0.559469C16.4686 0.559469 16.4531 0.563303 16.4393 0.570619C15.8023 0.905117 15.1243 1.16042 14.4215 1.33048C14.397 1.33773 14.3709 1.33839 14.3461 1.33236C14.3212 1.32634 14.2985 1.31387 14.2804 1.29628C14.2257 1.23311 14.1668 1.17346 14.1041 1.11772C13.8175 0.868654 13.4922 0.664806 13.1403 0.513629C12.6653 0.324644 12.1521 0.242798 11.6397 0.274274C11.1425 0.304724 10.657 0.434048 10.2135 0.654203C9.77682 0.886311 9.393 1.20164 9.08514 1.58123C8.76131 1.97193 8.52752 2.42535 8.39949 2.91098C8.29392 3.37292 8.28194 3.85035 8.36423 4.31672C8.36423 4.39651 8.36423 4.40791 8.2937 4.39651C5.50015 3.99758 3.20811 3.03636 1.33529 0.973344C1.25302 0.882161 1.20992 0.882161 1.14331 0.973344C0.328362 2.17392 0.724082 4.07357 1.74277 5.01199C1.8799 5.13737 2.02095 5.25895 2.16983 5.37293C1.70277 5.34077 1.24712 5.21804 0.829869 5.01199C0.751508 4.9626 0.70841 4.9892 0.704492 5.08038C0.693385 5.2068 0.693385 5.3339 0.704492 5.46031C0.786244 6.06614 1.03246 6.64005 1.41796 7.12335C1.80347 7.60665 2.31442 7.98199 2.89858 8.211C3.04099 8.27015 3.18937 8.31471 3.34132 8.34398C2.90894 8.42652 2.46548 8.43936 2.02878 8.38197C1.93475 8.36297 1.89949 8.41236 1.93475 8.49975C2.5107 10.0195 3.76055 10.483 4.67737 10.7413C4.80274 10.7603 4.92812 10.7603 5.06917 10.7907C5.06917 10.7907 5.06917 10.7907 5.04566 10.8135C4.77532 11.2922 3.68219 11.6152 3.18068 11.7823C2.2653 12.1012 1.28934 12.223 0.320526 12.1395C0.167723 12.1167 0.132461 12.1205 0.0932805 12.1395C0.0541002 12.1585 0.0932805 12.2003 0.136379 12.2383C0.33228 12.3636 0.528181 12.4738 0.731918 12.5802C1.33845 12.901 1.97967 13.1558 2.64391 13.34C6.08394 14.2595 9.95494 13.5832 12.5369 11.0947C14.5665 9.14183 15.2795 6.44813 15.2795 3.75063C15.2795 3.64805 15.4088 3.58726 15.4833 3.53407C15.9967 3.14612 16.4494 2.68796 16.8272 2.17392C16.8926 2.0973 16.9261 1.99973 16.9212 1.90037C16.9212 1.84338 16.9212 1.85478 16.8467 1.88517Z"
              fill="#33CCFF"/>
    </symbol>

    <symbol id="btn-category" viewBox="0 0 16 16">
        <circle cx="2" cy="3" r="1" fill="white"/>
        <line x1="6" y1="3" x2="15" y2="3" stroke="white" stroke-width="2" stroke-linecap="round"/>
        <circle cx="2" cy="8" r="1" fill="white"/>
        <line x1="6" y1="8" x2="15" y2="8" stroke="white" stroke-width="2" stroke-linecap="round"/>
        <circle cx="2" cy="13" r="1" fill="white"/>
        <line x1="6" y1="13" x2="10" y2="13" stroke="white" stroke-width="2" stroke-linecap="round"/>
    </symbol>

    <symbol id="check" viewBox="0 0 14 10">
        <path d="M12.9077 0.399523C13.1891 0.649695 13.2145 1.08065 12.9643 1.3621L5.69156 9.54391C5.56217 9.68947 5.37671 9.77276 5.18196 9.77276C4.98721 9.77276 4.80175 9.68947 4.67236 9.54391L1.036 5.453C0.785826 5.17156 0.811177 4.7406 1.09262 4.49043C1.37406 4.24026 1.80502 4.26561 2.05519 4.54705L5.18196 8.06467L11.9451 0.456145C12.1953 0.174702 12.6262 0.149352 12.9077 0.399523Z"
              fill="white"/>
    </symbol>

    <symbol id="cross-btn" viewBox="0 0 7 7">
        <path d="M0.15969 0.159691C0.372611 -0.0532304 0.717712 -0.0532304 0.930519 0.159691L3.5 2.72919L6.06948 0.159691C6.2824 -0.0532304 6.6275 -0.0532304 6.84031 0.159691C7.05323 0.372613 7.05323 0.717716 6.84031 0.930525L4.27083 3.50002L6.84031 6.06952C7.05323 6.28244 7.05323 6.62755 6.84031 6.84036C6.62739 7.05328 6.28229 7.05315 6.06948 6.84036L3.5 4.27086L0.930519 6.84036C0.717599 7.05315 0.372497 7.05315 0.15969 6.84036C-0.0532301 6.62743 -0.0532301 6.28233 0.15969 6.06952L2.72917 3.50002L0.15969 0.930525C-0.0532301 0.717603 -0.0532301 0.372499 0.15969 0.159691Z"
              fill="#797979"/>
    </symbol>

    <symbol id="category-open" viewBox="0 0 13 13">
        <line x1="1" y1="11.5858" x2="11.5858" y2="1" stroke-width="2" stroke-linecap="round"/>
        <line x1="1" y1="-1" x2="15.9706" y2="-1" transform="matrix(-0.707107 -0.707107 -0.707107 0.707107 12 13)"
              stroke-width="2" stroke-linecap="round"/>
    </symbol>

    <symbol id="filter-btn" viewBox="0 0 11 12">
        <path fill-rule="evenodd" clip-rule="evenodd"
              d="M2.16667 0C1.98986 0 1.82029 0.0702379 1.69527 0.195262C1.57024 0.320286 1.50001 0.489856 1.50001 0.666667V1.44667C1.10965 1.5844 0.771628 1.83983 0.532532 2.17773C0.293436 2.51564 0.165039 2.91939 0.165039 3.33333C0.165039 3.74728 0.293436 4.15103 0.532532 4.48893C0.771628 4.82684 1.10965 5.08227 1.50001 5.22V11.3333C1.50001 11.5101 1.57024 11.6797 1.69527 11.8047C1.82029 11.9298 1.98986 12 2.16667 12C2.34348 12 2.51305 11.9298 2.63808 11.8047C2.7631 11.6797 2.83334 11.5101 2.83334 11.3333V5.22C3.22369 5.08227 3.56172 4.82684 3.80081 4.48893C4.03991 4.15103 4.16831 3.74728 4.16831 3.33333C4.16831 2.91939 4.03991 2.51564 3.80081 2.17773C3.56172 1.83983 3.22369 1.5844 2.83334 1.44667V0.666667C2.83334 0.489856 2.7631 0.320286 2.63808 0.195262C2.51305 0.0702379 2.34348 0 2.16667 0ZM2.83334 3.33333C2.83334 3.51014 2.7631 3.67971 2.63808 3.80474C2.51305 3.92976 2.34348 4 2.16667 4C1.98986 4 1.82029 3.92976 1.69527 3.80474C1.57024 3.67971 1.50001 3.51014 1.50001 3.33333C1.50001 3.15652 1.57024 2.98695 1.69527 2.86193C1.82029 2.7369 1.98986 2.66667 2.16667 2.66667C2.34348 2.66667 2.51305 2.7369 2.63808 2.86193C2.7631 2.98695 2.83334 3.15652 2.83334 3.33333ZM8.83334 0C8.65653 0 8.48696 0.0702379 8.36193 0.195262C8.23691 0.320286 8.16667 0.489856 8.16667 0.666667V6.11333C7.77632 6.25107 7.43829 6.50649 7.1992 6.8444C6.9601 7.18231 6.83171 7.58606 6.83171 8C6.83171 8.41394 6.9601 8.81769 7.1992 9.1556C7.43829 9.49351 7.77632 9.74893 8.16667 9.88667V11.3333C8.16667 11.5101 8.23691 11.6797 8.36193 11.8047C8.48696 11.9298 8.65653 12 8.83334 12C9.01015 12 9.17972 11.9298 9.30474 11.8047C9.42977 11.6797 9.50001 11.5101 9.50001 11.3333V9.88667C9.89036 9.74893 10.2284 9.49351 10.4675 9.1556C10.7066 8.81769 10.835 8.41394 10.835 8C10.835 7.58606 10.7066 7.18231 10.4675 6.8444C10.2284 6.50649 9.89036 6.25107 9.50001 6.11333V0.666667C9.50001 0.489856 9.42977 0.320286 9.30474 0.195262C9.17972 0.0702379 9.01015 0 8.83334 0ZM9.50001 8C9.50001 8.17681 9.42977 8.34638 9.30474 8.47141C9.17972 8.59643 9.01015 8.66667 8.83334 8.66667C8.65653 8.66667 8.48696 8.59643 8.36193 8.47141C8.23691 8.34638 8.16667 8.17681 8.16667 8C8.16667 7.82319 8.23691 7.65362 8.36193 7.5286C8.48696 7.40357 8.65653 7.33333 8.83334 7.33333C9.01015 7.33333 9.17972 7.40357 9.30474 7.5286C9.42977 7.65362 9.50001 7.82319 9.50001 8Z"
              fill="#797979"/>
    </symbol>

    <symbol id="cross-popup" viewBox="0 0 12 12">
        <path d="M0.273755 0.273757C0.638761 -0.0912522 1.23036 -0.0912522 1.59518 0.273757L6 4.67861L10.4048 0.273757C10.7698 -0.0912522 11.3614 -0.0912522 11.7262 0.273757C12.0913 0.638765 12.0913 1.23037 11.7262 1.59519L7.32142 6.00004L11.7262 10.4049C12.0913 10.7699 12.0913 11.3615 11.7262 11.7263C11.3612 12.0913 10.7696 12.0911 10.4048 11.7263L6 7.32147L1.59518 11.7263C1.23017 12.0911 0.638566 12.0911 0.273755 11.7263C-0.0912516 11.3613 -0.0912516 10.7697 0.273755 10.4049L4.67858 6.00004L0.273755 1.59519C-0.0912516 1.23018 -0.0912516 0.638571 0.273755 0.273757Z"
              fill="#2A3548"/>
    </symbol>

    <symbol id="sign-in-mobile" viewBox="0 0 17 17">
        <path d="M8.50367 7.88578H8.50377C9.45102 7.88481 10.3596 7.51705 11.03 6.86256C11.7007 6.20787 12.0782 5.31981 12.0792 4.39294V4.39283C12.0792 3.4657 11.7019 2.57699 11.0311 1.92215C10.3604 1.26739 9.45117 0.9 8.50367 0.9C7.55617 0.9 6.64694 1.26739 5.97623 1.92215C5.30544 2.57699 4.92816 3.4657 4.92816 4.39283C4.92816 5.31996 5.30544 6.20867 5.97623 6.86351C6.64694 7.51826 7.55613 7.88578 8.50367 7.88578ZM10.3729 2.57132L10.3729 2.57133C10.8684 3.0549 11.1466 3.71005 11.1475 4.39285C11.1475 5.07591 10.8695 5.73153 10.374 6.21529C9.87832 6.69905 9.20564 6.97129 8.50367 6.97129C7.8017 6.97129 7.12902 6.69904 6.63335 6.21529C6.13777 5.7315 5.85982 5.07582 5.85982 4.39271C5.85982 3.7096 6.13777 3.05404 6.63335 2.57025C7.12902 2.08637 7.80169 1.81413 8.50367 1.81413V1.71413L8.50354 1.81413C9.20518 1.81504 9.87744 2.08766 10.3729 2.57132ZM13.0336 11.0228C14.238 12.1113 14.9873 13.594 15.1406 15.1858H1.87016C2.02352 13.594 2.77275 12.1113 3.97719 11.0228L3.91015 10.9486L3.9772 11.0228C5.20884 9.9097 6.8261 9.29101 8.50539 9.29101C10.1847 9.29101 11.8018 9.90969 13.0336 11.0228ZM1.36589 16.1H15.6339H15.6341C15.7569 16.1 15.8752 16.0524 15.9627 15.9669C16.0503 15.8814 16.1 15.7648 16.1 15.6428C16.1 13.6738 15.2987 11.786 13.8732 10.3944C12.4478 9.00277 10.5148 8.22153 8.5 8.22153C6.48519 8.22153 4.55233 9.0028 3.12683 10.3944C1.70134 11.7859 0.9 13.6738 0.9 15.6428C0.9 15.8976 1.11097 16.1 1.36589 16.1Z"
              fill="#059EA3" stroke="#059EA3" stroke-width="0.2"/>
    </symbol>

    <symbol id="authorized" viewBox="0 0 10 6">
        <path d="M5.36178 0.499999L10 5.5L8.60853 5.5L4.99072 1.68138L1.35436 5.5L0 5.5L4.67532 0.499999L5.36178 0.499999Z"
              fill="#08B8BD"/>
    </symbol>

    <symbol id="edit-card" viewBox="0 0 13 13">
        <path d="M11.0101 0.260017C10.7827 0.259361 10.5574 0.303836 10.3473 0.390866C10.1373 0.477895 9.94656 0.605748 9.78625 0.767017L1.11707 9.4362L1.06819 9.48482L0.150391 12.8505L3.51609 11.9327L12.2339 3.21466C12.3951 3.05433 12.523 2.86361 12.61 2.65354C12.697 2.44347 12.7415 2.21822 12.7409 1.99084C12.7404 1.53194 12.5579 1.09198 12.2334 0.767494C11.9089 0.443007 11.469 0.260499 11.0101 0.260017ZM1.66853 9.62002L8.06089 3.22766L9.77325 4.94002L3.38089 11.3324L1.66853 9.62002ZM8.42853 2.86002L9.10089 2.18766L10.8132 3.90002L10.1409 4.57238L8.42853 2.86002ZM1.43401 10.1208L2.88039 11.5672L0.891651 12.1095L1.43401 10.1208ZM11.8663 2.84702L11.1809 3.53238L9.46853 1.82002L10.1539 1.13466C10.2661 1.02185 10.3995 0.932421 10.5464 0.871546C10.6934 0.810671 10.851 0.77956 11.0101 0.780017C11.3311 0.780361 11.6389 0.90804 11.8659 1.13504C12.0929 1.36204 12.2205 1.66981 12.2209 1.99084C12.2213 2.14991 12.1902 2.3075 12.1294 2.45446C12.0685 2.60143 11.9791 2.73486 11.8663 2.84702Z"/>
    </symbol>

    <symbol id="pick-up" viewBox="0 0 13 14">
        <path d="M13 7.10861C13 6.24194 12.323 5.78152 11.375 5.78152H8.63961C8.82919 5.05027 8.93753 4.3461 8.93753 3.75026C8.93753 1.394 8.28752 0.906494 7.71877 0.906494C7.3396 0.906494 7.06877 0.933578 6.6896 1.17733C6.58127 1.2315 6.5271 1.33983 6.50001 1.44816L6.09376 3.64192C5.66043 4.80651 4.55 5.8086 3.65625 6.48569V12.2816C3.95417 12.2816 4.33334 12.4441 4.68542 12.6336C5.11876 12.8503 5.57918 13.067 6.09376 13.067H9.9667C10.7792 13.067 11.375 12.417 11.375 11.8482C11.375 11.7399 11.375 11.6315 11.348 11.5503C11.8625 11.3607 12.1875 10.9274 12.1875 10.4399C12.1875 10.1961 12.1334 9.97946 12.0521 9.81696C12.35 9.60029 12.675 9.2482 12.675 8.81487C12.675 8.5982 12.5667 8.32737 12.4042 8.13778C12.7563 7.86695 13 7.48778 13 7.10861ZM12.1605 7.10861C12.1605 7.6232 11.6188 7.67736 11.5375 7.92111C11.4563 8.19195 11.8625 8.30028 11.8625 8.78778C11.8625 9.30237 11.2396 9.30237 11.1584 9.54612C11.05 9.84404 11.348 9.95237 11.348 10.4399V10.5211C11.2667 10.9274 10.6438 10.9545 10.5355 11.117C10.4271 11.3065 10.5625 11.4149 10.5625 11.8482C10.5625 12.092 10.2917 12.2545 9.9667 12.2545H6.09376C5.79584 12.2545 5.41668 12.092 5.06459 11.9024C4.73959 11.7399 4.41459 11.5774 4.0625 11.4961V7.18986C5.06459 6.43152 6.3646 5.26693 6.87918 3.85859C6.87918 3.83151 6.87918 3.80443 6.90627 3.80443L7.28544 1.77317C7.42085 1.719 7.52919 1.719 7.74585 1.719C7.8271 1.719 8.15211 2.2065 8.15211 3.75026C8.15211 4.3461 8.04377 5.02318 7.82711 5.78152H7.71877C7.5021 5.78152 7.31252 5.9711 7.31252 6.18777C7.31252 6.40444 7.5021 6.59402 7.71877 6.59402H11.375C11.7813 6.59402 12.1605 6.78361 12.1605 7.10861Z"
              fill="#134563"/>
        <path d="M3.25002 13.0938H0.812504C0.352085 13.0938 0 12.7417 0 12.2813V6.59375C0 6.13334 0.352085 5.78125 0.812504 5.78125H3.25002C3.71044 5.78125 4.06252 6.13334 4.06252 6.59375V12.2813C4.06252 12.7417 3.71044 13.0938 3.25002 13.0938ZM0.812504 6.59375V12.2813H3.25002V6.59375H0.812504Z"
              fill="#134563"/>
    </symbol>

    <symbol id="person" viewBox="0 0 24 24">
        <circle cx="12" cy="12" r="12" fill="#059EA3"/>
        <g clip-path="url(#clip0_419_4055)">
            <path d="M12.0013 6.66675C10.528 6.66675 9.33464 7.86008 9.33464 9.33341C9.33464 10.8034 10.528 12.0001 12.0013 12.0001C13.4746 12.0001 14.668 10.8034 14.668 9.33341C14.668 7.86008 13.4746 6.66675 12.0013 6.66675ZM12.0013 13.3334C10.2246 13.3334 6.66797 14.2234 6.66797 16.0001V17.3334H17.3346V16.0001C17.3346 14.2234 13.778 13.3334 12.0013 13.3334Z"
                  fill="white"/>
        </g>
        <defs>
            <clipPath id="clip0_419_4055">
                <rect width="16" height="16" fill="white" transform="translate(4 4)"/>
            </clipPath>
        </defs>
    </symbol>

    <symbol id="phone-list" viewBox="0 0 24 24">
        <circle cx="12" cy="12" r="12" fill="#FAE26E"/>
        <path d="M16.5826 13.8893L15.6897 12.9964C15.4235 12.7323 15.0643 12.5835 14.6893 12.5819C14.3144 12.5803 13.9539 12.7261 13.6855 12.9879C13.5423 13.1319 13.3533 13.2215 13.1512 13.2413C12.949 13.2611 12.7463 13.2098 12.5779 13.0962C11.9131 12.6526 11.3421 12.0826 10.8972 11.4187C10.7856 11.2484 10.7362 11.0449 10.7572 10.8424C10.7782 10.6399 10.8683 10.4508 11.0124 10.3071C11.2718 10.0384 11.4157 9.67887 11.4134 9.30543C11.411 8.93199 11.2626 8.5743 10.9999 8.30893L10.1069 7.41601C9.8396 7.14959 9.47758 7 9.10017 7C8.72276 7 8.36073 7.14959 8.0934 7.41601L7.83649 7.67333C6.49711 9.01272 6.59736 11.8287 9.38408 14.6138C11.0644 16.2945 12.7557 16.9983 14.1271 16.9983C14.5308 17.0118 14.9331 16.9447 15.3107 16.8011C15.6882 16.6575 16.0334 16.4402 16.3261 16.1618L16.5834 15.9045C16.8503 15.637 17.0002 15.2746 17 14.8967C16.9998 14.5189 16.8497 14.1565 16.5826 13.8893ZM16.0087 15.3306L15.7514 15.5879C14.6961 16.6432 12.3668 16.4504 9.95717 14.0403C7.54751 11.6302 7.35431 9.29927 8.40958 8.24399L8.66487 7.98707C8.77982 7.87254 8.93547 7.80823 9.09773 7.80823C9.26 7.80823 9.41565 7.87254 9.5306 7.98707L10.4235 8.88C10.5364 8.99342 10.6004 9.14646 10.602 9.30646C10.6036 9.46646 10.5426 9.62075 10.432 9.73639C10.1578 10.0124 9.9867 10.3743 9.94747 10.7614C9.90823 11.1485 10.0032 11.5374 10.2165 11.8628C10.7221 12.6193 11.3721 13.2684 12.1294 13.7728C12.4538 13.9862 12.8417 14.0817 13.2281 14.0435C13.6145 14.0053 13.9761 13.8357 14.2525 13.563C14.3679 13.4511 14.5227 13.389 14.6834 13.39C14.8442 13.3909 14.9981 13.455 15.1121 13.5683L16.0051 14.4612C16.0626 14.5179 16.1084 14.5854 16.1397 14.6599C16.1711 14.7344 16.1874 14.8143 16.1877 14.8951C16.1881 14.9759 16.1724 15.056 16.1417 15.1307C16.111 15.2055 16.0658 15.2734 16.0087 15.3306Z"
              fill="#2A3548"/>
        <path d="M16.5826 13.8893L15.6897 12.9964C15.4235 12.7323 15.0643 12.5835 14.6893 12.5819C14.3144 12.5803 13.9539 12.7261 13.6855 12.9879C13.5423 13.1319 13.3533 13.2215 13.1512 13.2413C12.949 13.2611 12.7463 13.2098 12.5779 13.0962C11.9131 12.6526 11.3421 12.0826 10.8972 11.4187C10.7856 11.2484 10.7362 11.0449 10.7572 10.8424C10.7782 10.6399 10.8683 10.4508 11.0124 10.3071C11.2718 10.0384 11.4157 9.67887 11.4134 9.30543C11.411 8.93199 11.2626 8.5743 10.9999 8.30893L10.1069 7.41601C9.8396 7.14959 9.47758 7 9.10017 7C8.72276 7 8.36073 7.14959 8.0934 7.41601L7.83649 7.67333C6.49711 9.01272 6.59736 11.8287 9.38408 14.6138C11.0644 16.2945 12.7557 16.9983 14.1271 16.9983C14.5308 17.0118 14.9331 16.9447 15.3107 16.8011C15.6882 16.6575 16.0334 16.4402 16.3261 16.1618L16.5834 15.9045C16.8503 15.637 17.0002 15.2746 17 14.8967C16.9998 14.5189 16.8497 14.1565 16.5826 13.8893ZM16.0087 15.3306L15.7514 15.5879C14.6961 16.6432 12.3668 16.4504 9.95717 14.0403C7.54751 11.6302 7.35431 9.29927 8.40958 8.24399L8.66487 7.98707C8.77982 7.87254 8.93547 7.80823 9.09773 7.80823C9.26 7.80823 9.41565 7.87254 9.5306 7.98707L10.4235 8.88C10.5364 8.99342 10.6004 9.14646 10.602 9.30646C10.6036 9.46646 10.5426 9.62075 10.432 9.73639C10.1578 10.0124 9.9867 10.3743 9.94747 10.7614C9.90823 11.1485 10.0032 11.5374 10.2165 11.8628C10.7221 12.6193 11.3721 13.2684 12.1294 13.7728C12.4538 13.9862 12.8417 14.0817 13.2281 14.0435C13.6145 14.0053 13.9761 13.8357 14.2525 13.563C14.3679 13.4511 14.5227 13.389 14.6834 13.39C14.8442 13.3909 14.9981 13.455 15.1121 13.5683L16.0051 14.4612C16.0626 14.5179 16.1084 14.5854 16.1397 14.6599C16.1711 14.7344 16.1874 14.8143 16.1877 14.8951C16.1881 14.9759 16.1724 15.056 16.1417 15.1307C16.111 15.2055 16.0658 15.2734 16.0087 15.3306Z"
              fill="black" fill-opacity="0.2"/>
    </symbol>
    <symbol id="complain" viewBox="0 0 24 24">
        <path d="M12.8008 17C12.8008 17.5525 12.3532 18 11.8008 18C11.2483 18 10.8008 17.5525 10.8008 17C10.8008 16.4475 11.2483 16 11.8008 16C12.3532 16 12.8008 16.4475 12.8008 17ZM11.8008 6C11.2483 6 10.8008 6.448 10.8008 7V13C10.8008 13.5525 11.2483 14 11.8008 14C12.3532 14 12.8008 13.5525 12.8008 13V7C12.8008 6.448 12.3532 6 11.8008 6Z" fill="#2A3548"/>
        <rect x="0.5" y="0.5" width="23" height="23" rx="5.5" stroke="#FAE26E"/>
    </symbol>
    <symbol id="arrow-down" viewBox="0 0 10 6">
            <path d="M4.63822 5.5L0 0.5L1.39147 0.5L5.00928 4.31862L8.64564 0.5L10 0.5L5.32468 5.5L4.63822 5.5Z" fill="#2A3548"/>
    </symbol>
    <symbol id="successful" viewBox="0 0 31 31">
            <circle cx="15.5" cy="15.5" r="15.5" fill="#059EA3"/>
            <path d="M22.1923 9.0006C21.736 9.01397 21.3027 9.20579 20.9842 9.53527C18.2036 12.3427 15.6654 15.0959 12.9952 17.8431L9.85637 15.3075H9.85617C9.49215 15.014 9.02719 14.8784 8.56392 14.9302C8.10042 14.9821 7.67654 15.2171 7.38526 15.5841C7.09396 15.9508 6.95914 16.4193 7.01082 16.8863C7.0623 17.3531 7.29578 17.7803 7.65979 18.0736L12.0525 21.6142V21.6144C12.3914 21.8862 12.8179 22.0225 13.2502 21.997C13.6826 21.9714 14.0903 21.7858 14.3953 21.4759C17.5552 18.2853 20.3861 15.1517 23.4736 12.0342C23.8117 11.7 24.0017 11.242 24 10.7647C23.9986 10.2875 23.8057 9.83074 23.4654 9.4988C23.1249 9.16662 22.6659 8.98695 22.1923 9.00074L22.1923 9.0006Z" fill="white"/>
    </symbol>
    <symbol id="error" viewBox="0 0 31 31">
            <circle cx="15.5" cy="15.5" r="15.5" fill="#EE1D52"/>
            <path d="M17.2735 22.4602C17.2735 23.221 16.6564 23.8374 15.8946 23.8374C15.1328 23.8374 14.5156 23.221 14.5156 22.4602C14.5156 21.6993 15.1328 21.0829 15.8946 21.0829C16.6564 21.0829 17.2735 21.6993 17.2735 22.4602ZM15.8946 7.31055C15.1328 7.31055 14.5156 7.92755 14.5156 8.68779V16.9512C14.5156 17.7121 15.1328 18.3285 15.8946 18.3285C16.6564 18.3285 17.2735 17.7121 17.2735 16.9512V8.68779C17.2735 7.92755 16.6564 7.31055 15.8946 7.31055Z" fill="white"/>
    </symbol>

    <symbol id="pen" viewBox="0 0 13 13">
            <path d="M11.0081 0.259773C10.7807 0.259117 10.5555 0.303592 10.3454 0.390622C10.1353 0.477651 9.9446 0.605504 9.7843 0.766773L1.11512 9.43595L1.06624 9.48457L0.148438 12.8503L3.51414 11.9325L12.2319 3.21441C12.3932 3.05409 12.521 2.86337 12.608 2.6533C12.6951 2.44323 12.7396 2.21798 12.7389 1.99059C12.7385 1.5317 12.5559 1.09174 12.2315 0.76725C11.907 0.442763 11.467 0.260255 11.0081 0.259773ZM1.66658 9.61977L8.05894 3.22741L9.7713 4.93977L3.37894 11.3321L1.66658 9.61977ZM8.42658 2.85977L9.09894 2.18741L10.8113 3.89977L10.1389 4.57213L8.42658 2.85977ZM1.43206 10.1205L2.87844 11.5669L0.889697 12.1093L1.43206 10.1205ZM11.8643 2.84677L11.1789 3.53213L9.46658 1.81977L10.1519 1.13441C10.2641 1.02161 10.3975 0.932177 10.5445 0.871302C10.6915 0.810427 10.849 0.779316 11.0081 0.779773C11.3291 0.780117 11.6369 0.907796 11.8639 1.13479C12.0909 1.36179 12.2186 1.66957 12.2189 1.99059C12.2194 2.14967 12.1883 2.30725 12.1274 2.45422C12.0665 2.60118 11.9771 2.73461 11.8643 2.84677Z"/>
    </symbol>

    <symbol id="cross-cart" viewBox="0 0 11 11">
        <path d="M0.250942 0.250943C0.585531 -0.0836478 1.12783 -0.0836478 1.46224 0.250943L5.5 4.28873L9.53776 0.250943C9.87235 -0.0836478 10.4146 -0.0836478 10.7491 0.250943C11.0836 0.585535 11.0836 1.12784 10.7491 1.46225L6.7113 5.50004L10.7491 9.53782C11.0836 9.87241 11.0836 10.4147 10.7491 10.7491C10.4145 11.0837 9.87217 11.0835 9.53776 10.7491L5.5 6.71135L1.46224 10.7491C1.12765 11.0835 0.585352 11.0835 0.250942 10.7491C-0.0836473 10.4145 -0.0836473 9.87223 0.250942 9.53782L4.2887 5.50004L0.250942 1.46225C-0.0836473 1.12766 -0.0836473 0.585356 0.250942 0.250943Z"/>
    </symbol>

    <symbol id="referral-link" viewBox="0 0 14 14">
            <path d="M8.38631 2.64058C8.16332 2.86826 7.80174 2.86826 7.57895 2.64058C7.35595 2.4131 7.35595 2.04392 7.57895 1.81645L8.39645 0.981551C9.67825 -0.327184 11.7567 -0.327184 13.0385 0.981551C14.3205 2.29049 14.3205 4.41243 13.0385 5.72137L9.80929 9.01845C8.5275 10.3272 6.44904 10.3272 5.16725 9.01845C4.94425 8.79077 4.94425 8.4218 5.16725 8.19411C5.39004 7.96643 5.75162 7.96643 5.97461 8.19411C6.81042 9.0477 8.16592 9.0477 9.00198 8.19411L12.2312 4.89704C13.0672 4.04346 13.0672 2.65947 12.2312 1.80589C11.3954 0.952304 10.0399 0.952304 9.20382 1.80589L8.38631 2.64058Z" fill="white"/>
            <path d="M5.61371 11.3593C5.8367 11.1316 6.19808 11.1316 6.42107 11.3593C6.64406 11.587 6.64406 11.9559 6.42107 12.1836L5.60357 13.0183C4.32157 14.3272 2.24333 14.3272 0.961341 13.0183C-0.320447 11.7096 -0.320447 9.58746 0.961341 8.27874L4.19073 4.9817C5.47252 3.67277 7.55097 3.67277 8.83276 4.9817C9.05575 5.20917 9.05575 5.57835 8.83276 5.80602C8.60976 6.0335 8.24839 6.0335 8.02539 5.80602C7.18939 4.95245 5.8339 4.95245 4.99789 5.80602L1.7687 9.10307C0.932696 9.95664 0.932696 11.3406 1.7687 12.194C2.60471 13.0476 3.9602 13.0476 4.7962 12.194L5.61371 11.3593Z" fill="white"/>
    </symbol>
    <symbol id="vk-popup" viewBox="0 0 36 36">
            <circle cx="18" cy="18" r="18" fill="#7294C7"/>
            <path d="M26.8242 22.6028C26.8242 22.5281 26.7495 22.5281 26.7495 22.4534C26.4506 21.8556 25.7781 21.1084 24.8815 20.2865C24.4331 19.9129 24.209 19.614 24.0595 19.4646C23.8354 19.1657 23.8354 18.9415 23.9101 18.6427C23.9848 18.4185 24.2837 18.0449 24.8067 17.3724C25.1056 16.9988 25.255 16.7746 25.4792 16.5505C26.6 15.0561 27.1231 14.0847 26.9736 13.6364L26.8989 13.5617C26.8242 13.4869 26.7495 13.4122 26.6 13.4122C26.4506 13.3375 26.2264 13.3375 26.0023 13.4122H23.1629C23.0882 13.4122 23.0882 13.4122 22.9387 13.4122C22.864 13.4122 22.7893 13.4122 22.7893 13.4122H22.7146H22.6398L22.5651 13.4869C22.4904 13.5617 22.4904 13.5617 22.4904 13.6364C22.1915 14.4583 21.8179 15.1308 21.4443 15.878C21.2201 16.2516 20.996 16.6252 20.7718 16.9241C20.5477 17.223 20.3982 17.4471 20.2488 17.5966C20.0993 17.746 19.9499 17.8207 19.8752 17.9702C19.8004 18.0449 19.651 18.1196 19.651 18.0449C19.5763 18.0449 19.5016 18.0449 19.5016 17.9702C19.4268 17.8955 19.3521 17.8207 19.2774 17.746C19.2027 17.6713 19.2027 17.5218 19.128 17.3724C19.128 17.223 19.128 17.0735 19.128 16.9988C19.128 16.9241 19.128 16.6999 19.128 16.5505C19.128 16.3263 19.128 16.1769 19.128 16.1022C19.128 15.878 19.128 15.5791 19.128 15.2802C19.128 14.9814 19.128 14.7572 19.128 14.6077C19.128 14.4583 19.128 14.2341 19.128 14.0847C19.128 13.8605 19.128 13.7111 19.128 13.6364C19.128 13.5617 19.0533 13.4122 19.0533 13.3375C18.9785 13.2628 18.9038 13.1881 18.8291 13.1133C18.7544 13.0386 18.6049 13.0386 18.5302 12.9639C18.1566 12.8892 17.7083 12.8145 17.1852 12.8145C15.9897 12.8145 15.1678 12.8892 14.8689 13.0386C14.7195 13.1133 14.57 13.1881 14.4953 13.3375C14.3458 13.4869 14.3458 13.5617 14.4206 13.5617C14.7942 13.6364 15.0931 13.7858 15.2425 14.01L15.3172 14.1594C15.3919 14.2341 15.3919 14.3836 15.4666 14.6077C15.5414 14.8319 15.5414 15.0561 15.5414 15.355C15.5414 15.8033 15.5414 16.2516 15.5414 16.5505C15.5414 16.9241 15.4666 17.1482 15.4666 17.3724C15.4666 17.5966 15.3919 17.746 15.3172 17.8207C15.2425 17.9702 15.2425 18.0449 15.1678 18.0449C15.1678 18.0449 15.1678 18.1196 15.093 18.1196C15.0183 18.1196 14.9436 18.1943 14.7942 18.1943C14.7194 18.1943 14.57 18.1196 14.4953 18.0449C14.3458 17.9702 14.1964 17.8207 14.1217 17.6713C13.9722 17.5219 13.8228 17.2977 13.6734 16.9988C13.5239 16.6999 13.2997 16.401 13.1503 15.9527L13.0009 15.6538C12.9262 15.5044 12.7767 15.2055 12.6273 14.8319C12.4778 14.4583 12.3284 14.1594 12.1789 13.7858C12.1042 13.6364 12.0295 13.5617 11.9548 13.4869H11.8801C11.8801 13.4869 11.8053 13.4122 11.7306 13.4122C11.6559 13.4122 11.5812 13.3375 11.5065 13.3375H8.81652C8.51763 13.3375 8.3682 13.4122 8.29348 13.4869L8.21875 13.5617C8.21875 13.5617 8.21875 13.6364 8.21875 13.7111C8.21875 13.7858 8.21875 13.8605 8.29348 14.01C8.66708 14.9066 9.1154 15.8033 9.56372 16.6999C10.012 17.5219 10.4604 18.2691 10.7593 18.7921C11.1329 19.3151 11.4317 19.8382 11.8053 20.2865C12.1789 20.7348 12.4031 21.0337 12.4778 21.1832C12.6273 21.3326 12.702 21.4073 12.7767 21.482L13.0009 21.7062C13.1503 21.8556 13.3745 22.0798 13.6734 22.304C13.9722 22.5281 14.3458 22.7523 14.7194 22.9765C15.093 23.2006 15.5414 23.3501 15.9897 23.4995C16.5127 23.6489 16.9611 23.7237 17.4094 23.6489H18.5302C18.7544 23.6489 18.9038 23.5742 19.0533 23.4248L19.128 23.3501C19.128 23.2753 19.2027 23.2753 19.2027 23.2006C19.2027 23.1259 19.2027 23.0512 19.2027 22.9017C19.2027 22.6029 19.2027 22.3787 19.2774 22.1545C19.3521 21.9304 19.3521 21.7809 19.4269 21.6315C19.5016 21.482 19.5763 21.4073 19.651 21.3326C19.7257 21.2579 19.8005 21.1832 19.8005 21.1832H19.8752C20.0246 21.1084 20.2488 21.1832 20.3982 21.3326C20.6224 21.482 20.8465 21.7062 20.996 21.9304C21.1454 22.1545 21.3696 22.3787 21.6685 22.6776C21.9674 22.9765 22.1915 23.2006 22.341 23.2753L22.5651 23.4248C22.7146 23.4995 22.864 23.5742 23.0882 23.6489C23.3123 23.7237 23.4618 23.7237 23.6112 23.7237L26.1517 23.6489C26.3759 23.6489 26.6 23.5742 26.7495 23.4995C26.8989 23.4248 26.9736 23.3501 26.9736 23.2006C26.9736 23.1259 26.9736 22.9765 26.9736 22.9017C26.8242 22.7523 26.8242 22.6776 26.8242 22.6028Z" fill="white"/>
    </symbol>
    <symbol id="fb" viewBox="0 0 36 36">
            <circle cx="18" cy="18" r="18" fill="#4E6297"/>
            <path d="M26.0969 12.4352C26.0969 11.0876 24.9078 9.89844 23.5601 9.89844H13.3337C11.986 9.89844 10.7969 11.0876 10.7969 12.4352V22.6616C10.7969 24.0093 11.986 25.1984 13.3337 25.1984H18.4865V19.4114H16.5839V16.8746H18.4865V15.844C18.4865 14.1 19.7549 12.5938 21.3404 12.5938H23.4015V15.1306H21.3404C21.1026 15.1306 20.8647 15.3684 20.8647 15.844V16.8746H23.4015V19.4114H20.8647V25.1984H23.5601C24.9078 25.1984 26.0969 24.0093 26.0969 22.6616V12.4352Z" fill="white"/>
    </symbol>
    <symbol id="google" viewBox="0 0 36 36">
            <circle cx="18" cy="18" r="18" fill="#C5331E"/>
            <path d="M18.3059 16.5959V20.1584H23.1509C22.4384 22.0822 20.5859 23.3647 18.4484 23.3647C15.6697 23.3647 13.4609 21.1559 13.4609 18.3772C13.4609 15.5984 15.6697 13.3897 18.4484 13.3897C19.5172 13.3897 20.5147 13.7459 21.3697 14.3159L21.6547 14.5297L23.7922 11.7509L23.5072 11.5372C22.0109 10.4684 20.3009 9.89844 18.4484 9.89844C13.7459 9.89844 9.89844 13.7459 9.89844 18.4484C9.89844 23.1509 13.7459 26.9984 18.4484 26.9984C23.1509 26.9984 26.9984 23.1509 26.9984 18.4484V16.6672H18.3059V16.5959Z" fill="white"/>
    </symbol>
    <symbol viewBox="0 0 36 36" id="yandex">
            <path d="M36 18C36 27.9411 27.9411 36 18 36C8.05887 36 0 27.9411 0 18C0 8.05887 8.05887 0 18 0C27.9411 0 36 8.05887 36 18Z" fill="#ED1E24"/>
            <path d="M20.1868 18.9511H18.9232C16.9378 18.9511 15.0124 17.5689 15.0124 14.1126C15.0124 10.5129 16.8176 9.04399 18.6524 9.04399H20.1868V18.9511ZM22.1722 7.20078H18.743C15.373 7.20078 12.5158 9.6492 12.5158 14.401C12.5158 17.2522 13.8995 19.3546 16.3665 20.3909L11.7635 28.3398C11.6128 28.599 11.7635 28.8008 12.0038 28.8008H14.1399C14.3202 28.8008 14.4412 28.7433 14.5013 28.599L18.6829 20.7944H20.1868V28.599C20.1868 28.6857 20.2773 28.8008 20.3975 28.8008H22.2628C22.443 28.8008 22.5031 28.7141 22.5031 28.5707V7.48841C22.5031 7.28746 22.3829 7.20078 22.1722 7.20078Z" fill="white"/>
    </symbol>
    <symbol viewBox="0 0 36 36" id="mymir">
            <circle cx="18" cy="18" r="18" fill="#F59124"/>
            <path d="M23.9196 12.7427C22.5073 11.4481 20.8007 10.8008 18.6823 10.8008C16.5049 10.8008 14.6219 11.5069 13.0919 12.9781C11.5619 14.4492 10.7969 16.2735 10.7969 18.4508C10.7969 20.5692 11.503 22.3346 12.9742 23.8646C14.4453 25.3946 16.3873 26.1008 18.9177 26.1008C20.3888 26.1008 21.86 25.8066 23.3311 25.1592C23.8019 24.9827 24.0373 24.3942 23.8607 23.9235C23.6842 23.4527 23.0957 23.2173 22.625 23.3939C21.3892 23.9235 20.1534 24.2177 18.9765 24.2177C17.0934 24.2177 15.6223 23.6292 14.563 22.4523C13.5038 21.2754 12.9742 19.9219 12.9742 18.3919C12.9742 16.6854 13.5626 15.2731 14.6219 14.155C15.74 13.0369 17.0934 12.4485 18.7411 12.4485C20.2123 12.4485 21.5069 12.9192 22.5661 13.8608C23.6253 14.8023 24.0961 15.9792 24.0961 17.3915C24.0961 18.3331 23.8607 19.1569 23.3899 19.8042C22.9192 20.4516 22.4484 20.7458 21.9188 20.7458C21.6246 20.7458 21.5069 20.6281 21.5069 20.275C21.5069 20.0396 21.5069 19.7454 21.5657 19.4512L22.1542 14.6846H20.1534L20.0357 15.1554C19.5061 14.7435 18.9765 14.5081 18.388 14.5081C17.4465 14.5081 16.6227 14.92 15.9165 15.685C15.2103 16.45 14.9161 17.4504 14.9161 18.6273C14.9161 19.8042 15.2103 20.7458 15.8576 21.5108C16.4461 22.2169 17.2111 22.57 18.035 22.57C18.8 22.57 19.4473 22.2758 19.9769 21.6285C20.3888 22.2169 20.9773 22.57 21.8011 22.57C22.978 22.57 23.9784 22.0404 24.8611 21.04C25.7438 20.0396 26.1557 18.8039 26.1557 17.3327C25.9792 15.5673 25.273 13.9785 23.9196 12.7427ZM19.2707 19.9219C18.9176 20.3927 18.5057 20.6281 17.9761 20.6281C17.623 20.6281 17.3877 20.4516 17.1523 20.0985C16.9169 19.7454 16.858 19.3335 16.858 18.8039C16.858 18.1566 16.9757 17.6269 17.27 17.2739C17.5642 16.8619 17.9173 16.6854 18.3292 16.6854C18.6823 16.6854 19.0353 16.8031 19.3296 17.1562C19.6238 17.4504 19.7415 17.8623 19.7415 18.3331C19.8003 18.9216 19.6238 19.4512 19.2707 19.9219Z" fill="white"/>
    </symbol>
    <symbol viewBox="0 0 15 15" id="cross-popup-white">
            <path d="M0.342193 0.342196C0.798451 -0.114065 1.53795 -0.114065 1.99397 0.342196L7.5 5.84826L13.006 0.342196C13.4623 -0.114065 14.2018 -0.114065 14.6578 0.342196C15.1141 0.798457 15.1141 1.53796 14.6578 1.99398L9.15177 7.50005L14.6578 13.0061C15.1141 13.4624 15.1141 14.2019 14.6578 14.6579C14.2016 15.1142 13.462 15.1139 13.006 14.6579L7.5 9.15184L1.99397 14.6579C1.53771 15.1139 0.798208 15.1139 0.342193 14.6579C-0.114064 14.2016 -0.114064 13.4621 0.342193 13.0061L5.84823 7.50005L0.342193 1.99398C-0.114064 1.53772 -0.114064 0.798213 0.342193 0.342196Z" fill="white"/>
    </symbol>
</svg>







