<svg version="1.0" xmlns="http://www.w3.org/2000/svg"
 width="138.000000pt" height="128.000000pt" viewBox="0 0 138.000000 128.000000"
 preserveAspectRatio="xMidYMid meet">
    <g transform="translate(0.000000,128.000000) scale(0.100000,-0.100000)"
    fill="#FAFBFB" stroke="none">
        <path d="M311 1189 c-171 -61 -287 -262 -252 -437 25 -123 43 -147 329 -434
        l266 -268 46 0 c52 0 86 26 92 69 1 13 10 27 18 31 78 36 84 41 95 92 4 22 11
        28 31 28 32 0 73 40 80 80 5 23 12 30 30 30 29 0 199 160 244 230 20 30 37 77
        47 126 37 185 -46 353 -216 437 -61 30 -73 32 -166 32 -95 0 -104 -2 -181 -38
        l-81 -39 -47 31 c-85 53 -232 67 -335 30z m294 -48 c37 -17 65 -35 63 -40 -1
        -6 -69 -77 -150 -159 -82 -82 -148 -157 -148 -166 0 -32 21 -58 63 -77 78 -35
        103 -26 203 71 l66 64 31 -18 c18 -10 53 -30 78 -43 45 -24 289 -272 289 -294
        0 -22 -22 -50 -47 -60 -35 -13 -76 16 -196 142 -53 54 -100 99 -106 99 -27 0
        -2 -33 114 -150 69 -71 125 -135 125 -145 0 -26 -39 -65 -65 -65 -15 0 -66 43
        -151 125 -71 69 -132 125 -136 125 -22 0 2 -33 103 -139 139 -144 144 -152
        128 -183 -35 -67 -63 -55 -210 88 -71 69 -134 122 -139 119 -17 -10 2 -33 124
        -155 121 -120 137 -148 100 -184 -41 -41 -57 -29 -331 244 -305 305 -315 319
        -321 456 -5 103 5 145 50 217 39 61 102 112 175 143 83 35 194 29 288 -15z
        m499 4 c148 -71 230 -228 204 -393 -11 -71 -45 -132 -114 -208 -51 -56 -55
        -58 -67 -39 -6 11 -64 73 -127 139 -64 66 -110 120 -103 123 24 9 77 48 81 61
        6 19 -27 14 -55 -8 -44 -34 -105 -22 -200 40 -21 13 -26 10 -92 -53 -96 -93
        -132 -106 -198 -75 -47 23 -38 37 143 219 179 180 215 206 304 223 68 12 166
        0 224 -29z"/>
    </g>
</svg>
