<svg width="6" height="4" viewBox="0 0 6 4" fill="none" xmlns="http://www.w3.org/2000/svg">
<path d="M3.31506 3.65375C3.25358 3.7153 3.17018 3.74992 3.08318 3.75L2.91693 3.75C2.83013 3.74899 2.74706 3.71451 2.68506 3.65375L0.440682 1.405C0.39927 1.36393 0.375976 1.30801 0.375976 1.24969C0.375976 1.19136 0.39927 1.13545 0.440682 1.09438L0.751307 0.78375C0.791629 0.742597 0.846818 0.719407 0.904432 0.719407C0.962047 0.719407 1.01724 0.742597 1.05756 0.78375L3.00006 2.73063L4.94256 0.78375C4.98363 0.742338 5.03954 0.719044 5.09787 0.719044C5.1562 0.719044 5.21211 0.742338 5.25318 0.78375L5.55943 1.09438C5.60085 1.13545 5.62414 1.19136 5.62414 1.24969C5.62414 1.30801 5.60085 1.36393 5.55943 1.405L3.31506 3.65375Z" fill="#2A3548"/>
</svg>
