<svg width="20" height="11" viewBox="0 0 20 11" fill="none" xmlns="http://www.w3.org/2000/svg">
<path fill-rule="evenodd" clip-rule="evenodd" d="M9.99647 0.000166799C6.00945 0.000166799 2.44812 2.02712 0.0968937 5.20109V5.20092C-0.0322979 5.37423 -0.0322979 5.61809 0.0968937 5.79139C2.44816 8.9654 6.00945 11 9.99647 11C13.9813 11 17.5497 8.9654 19.9029 5.79139H19.9031C20.0323 5.61808 20.0323 5.37423 19.9031 5.20092C17.5496 2.02708 13.9812 0 9.99663 0L9.99647 0.000166799ZM9.31468 1.12857C11.6782 1.12857 13.5829 3.09463 13.5829 5.52246C13.5829 7.95019 11.6783 9.91634 9.31468 9.91634C6.95104 9.91634 5.05374 7.95028 5.05374 5.52246C5.05374 3.09455 6.9512 1.12857 9.31468 1.12857Z" fill="#059EA3"/>
<path fill-rule="evenodd" clip-rule="evenodd" d="M9.5 4C8.67907 4 8 4.67247 8 5.5C8 6.32884 8.67979 7 9.5 7C10.3202 7 11 6.32884 11 5.5C11 4.67247 10.3209 4 9.5 4Z" fill="#059EA3"/>
</svg>
