<svg width="28" height="28" viewBox="0 0 28 28" fill="none" xmlns="http://www.w3.org/2000/svg">
<path d="M13.9158 23.3502C13.2734 23.3513 12.6415 23.1876 12.0805 22.8747C6.09549 19.5195 2.7998 15.3864 2.7998 11.2372C2.7998 7.54118 5.38543 4.64624 8.68593 4.64624C9.66871 4.64708 10.6407 4.85127 11.5407 5.24595C12.4408 5.64063 13.2494 6.21727 13.9158 6.93962C14.5822 6.21727 15.3908 5.64063 16.2909 5.24595C17.1909 4.85127 18.1629 4.64708 19.1457 4.64624C22.4462 4.64624 25.0318 7.54118 25.0318 11.2372C25.0318 15.3864 21.7361 19.5195 15.7511 22.8747C15.1901 23.1875 14.5582 23.3512 13.9158 23.3502Z" fill="#CDCDCD"/>
<path d="M13.9998 23.3502C13.3574 23.3513 12.7255 23.1876 12.1645 22.8747C6.17948 19.5195 2.88379 15.3864 2.88379 11.2372C2.88379 7.54118 5.46941 4.64624 8.76991 4.64624C9.75269 4.64708 10.7247 4.85127 11.6247 5.24595C12.5248 5.64063 13.3334 6.21727 13.9998 6.93962C14.6662 6.21727 15.4748 5.64063 16.3749 5.24595C17.2749 4.85127 18.2469 4.64708 19.2297 4.64624C22.5302 4.64624 25.1158 7.54118 25.1158 11.2372C25.1158 15.3864 21.8201 19.5195 15.8351 22.8747C15.274 23.1875 14.6422 23.3512 13.9998 23.3502ZM8.76991 5.95874C6.16241 5.95874 4.19629 8.22805 4.19629 11.2372C4.19629 14.8907 7.25398 18.6169 12.8059 21.7293C13.171 21.9325 13.5819 22.0391 13.9998 22.0391C14.4176 22.0391 14.8286 21.9325 15.1937 21.7293C20.7456 18.6169 23.8033 14.8907 23.8033 11.2372C23.8033 8.22805 21.8372 5.95874 19.2297 5.95874C18.3179 5.96172 17.4196 6.17828 16.6066 6.59106C15.7937 7.00383 15.0888 7.60134 14.5484 8.33568C14.4896 8.42725 14.4082 8.50222 14.3122 8.55346C14.2162 8.60469 14.1086 8.63048 13.9998 8.62837C13.8919 8.62817 13.7857 8.60135 13.6906 8.5503C13.5955 8.49924 13.5145 8.42553 13.4547 8.33568C12.9139 7.60087 12.2085 7.00307 11.3949 6.59027C10.5813 6.17747 9.68223 5.96117 8.76991 5.95874V5.95874Z" fill="white"/>
</svg>
