<svg width="24" height="20" viewBox="0 0 24 20" fill="none" xmlns="http://www.w3.org/2000/svg">
<path d="M11.9998 19.3502C11.3574 19.3513 10.7255 19.1876 10.1645 18.8747C4.17948 15.5195 0.883789 11.3864 0.883789 7.23718C0.883789 3.54118 3.46941 0.64624 6.76991 0.64624C7.75269 0.647084 8.72467 0.851267 9.62471 1.24595C10.5248 1.64063 11.3334 2.21727 11.9998 2.93962C12.6662 2.21727 13.4748 1.64063 14.3749 1.24595C15.2749 0.851267 16.2469 0.647084 17.2297 0.64624C20.5302 0.64624 23.1158 3.54118 23.1158 7.23718C23.1158 11.3864 19.8201 15.5195 13.8351 18.8747C13.274 19.1875 12.6422 19.3512 11.9998 19.3502ZM6.76991 1.95874C4.16241 1.95874 2.19629 4.22805 2.19629 7.23718C2.19629 10.8907 5.25398 14.6169 10.8059 17.7293C11.171 17.9325 11.5819 18.0391 11.9998 18.0391C12.4176 18.0391 12.8286 17.9325 13.1937 17.7293C18.7456 14.6169 21.8033 10.8907 21.8033 7.23718C21.8033 4.22805 19.8372 1.95874 17.2297 1.95874C16.3179 1.96172 15.4196 2.17828 14.6066 2.59106C13.7937 3.00383 13.0888 3.60134 12.5484 4.33568C12.4896 4.42725 12.4082 4.50222 12.3122 4.55346C12.2162 4.60469 12.1086 4.63048 11.9998 4.62837C11.8919 4.62817 11.7857 4.60135 11.6906 4.5503C11.5955 4.49924 11.5145 4.42553 11.4547 4.33568C10.9139 3.60087 10.2085 3.00307 9.39487 2.59027C8.58128 2.17747 7.68223 1.96117 6.76991 1.95874Z" fill="#EE1D52"/>
</svg>
