<svg width="8" height="4" viewBox="0 0 8 4" fill="none" xmlns="http://www.w3.org/2000/svg">
<path d="M3.94225 0.00329044C3.85347 0.0152364 3.77114 0.0530195 3.70666 0.111174L0.151425 3.29733C0.0616503 3.36807 0.0070927 3.47031 0.000645048 3.57976C-0.00580286 3.68931 0.0363548 3.79646 0.117302 3.876C0.198148 3.95555 0.310639 4.00037 0.428081 4C0.54563 3.99963 0.657724 3.95407 0.738072 3.87396L4 0.949058L7.26193 3.87396C7.34228 3.95406 7.45437 3.99963 7.57192 4C7.68937 4.00037 7.80186 3.95555 7.8827 3.876C7.96364 3.79645 8.0058 3.68931 7.99936 3.57976C7.99291 3.47031 7.93835 3.36807 7.84858 3.29732L4.29334 0.111174C4.1999 0.0273666 4.07071 -0.0124507 3.94225 0.00329044Z" fill="#2A3548"/>
</svg>
