<svg width="4" height="8" viewBox="0 0 4 8" fill="none" xmlns="http://www.w3.org/2000/svg">
<path d="M3.99671 3.94225C3.98476 3.85347 3.94698 3.77114 3.88883 3.70666L0.702675 0.151424C0.631925 0.0616496 0.529691 0.00709194 0.420236 0.000644265C0.310686 -0.00580367 0.203544 0.036354 0.123999 0.117302C0.0444522 0.198148 -0.000367178 0.310638 2.60389e-06 0.42808C0.000373101 0.545629 0.0459342 0.657723 0.126036 0.738071L3.05094 4L0.126036 7.26193C0.0459339 7.34228 0.000372084 7.45437 2.29163e-06 7.57192C-0.000367978 7.68937 0.0444518 7.80186 0.123999 7.8827C0.203546 7.96364 0.310688 8.0058 0.420235 7.99936C0.529693 7.99291 0.631927 7.93835 0.702674 7.84858L3.88883 4.29334C3.97263 4.1999 4.01245 4.07071 3.99671 3.94225Z" fill="#2A3548"/>
</svg>
