<svg width="8" height="4" viewBox="0 0 8 4" fill="none" xmlns="http://www.w3.org/2000/svg">
<path d="M4.05775 3.99671C4.14653 3.98476 4.22886 3.94698 4.29334 3.88883L7.84858 0.702675C7.93835 0.631925 7.99291 0.529691 7.99936 0.420236C8.0058 0.310686 7.96365 0.203544 7.8827 0.123999C7.80185 0.0444522 7.68936 -0.000367192 7.57192 2.58518e-06C7.45437 0.000373077 7.34228 0.0459341 7.26193 0.126036L4 3.05094L0.738071 0.126035C0.65772 0.0459336 0.545628 0.000371758 0.428079 1.96065e-06C0.31063 -0.000368314 0.19814 0.0444515 0.117302 0.123999C0.0363568 0.203546 -0.00580374 0.310687 0.000644043 0.420235C0.00709183 0.529692 0.0616496 0.631927 0.151424 0.702674L3.70666 3.88883C3.8001 3.97263 3.92929 4.01245 4.05775 3.99671Z" fill="#2A3548"/>
</svg>
