<svg width="12" height="12" viewBox="0 0 12 12" fill="none" xmlns="http://www.w3.org/2000/svg">
<path d="M11.8327 4.89082C11.891 4.59915 11.6577 4.24915 11.366 4.24915L8.04102 3.78248L6.52435 0.74915C6.46602 0.632484 6.40768 0.57415 6.29102 0.515817C5.99935 0.340817 5.64935 0.457484 5.47435 0.74915L4.01602 3.78248L0.691016 4.24915C0.516016 4.24915 0.399349 4.30748 0.341016 4.42415C0.107682 4.65748 0.107682 5.00748 0.341016 5.24082L2.73268 7.57415L2.14935 10.8992C2.14935 11.0158 2.14935 11.1325 2.20768 11.2492C2.38268 11.5408 2.73268 11.6575 3.02435 11.4825L5.99935 9.90749L8.97435 11.4825C9.03268 11.5408 9.14935 11.5408 9.26602 11.5408C9.32435 11.5408 9.32435 11.5408 9.38268 11.5408C9.67435 11.4825 9.90768 11.1908 9.84935 10.8408L9.26602 7.51582L11.6577 5.18248C11.7744 5.12415 11.8327 5.00748 11.8327 4.89082Z" fill="#E2E2E2"/>
</svg>
