<svg width="24" height="24" viewBox="0 0 24 24" fill="none" xmlns="http://www.w3.org/2000/svg">
<path d="M12.8008 17C12.8008 17.5525 12.3532 18 11.8008 18C11.2483 18 10.8008 17.5525 10.8008 17C10.8008 16.4475 11.2483 16 11.8008 16C12.3532 16 12.8008 16.4475 12.8008 17ZM11.8008 6C11.2483 6 10.8008 6.448 10.8008 7V13C10.8008 13.5525 11.2483 14 11.8008 14C12.3532 14 12.8008 13.5525 12.8008 13V7C12.8008 6.448 12.3532 6 11.8008 6Z" fill="#2A3548"/>
<rect x="0.5" y="0.5" width="23" height="23" rx="5.5" stroke="#FAE26E"/>
</svg>
